<svg xmlns="http://www.w3.org/2000/svg" xmlns:xlink="http://www.w3.org/1999/xlink" width="2459.713" height="619" viewBox="0 0 2459.713 619">
  <defs>
    <linearGradient id="linear-gradient" x1="-6.612" y1="7.039" x2="-6.596" y2="7.033" gradientUnits="objectBoundingBox">
      <stop offset="0" stop-opacity="0.8"/>
      <stop offset="1" stop-opacity="0"/>
    </linearGradient>
    <linearGradient id="linear-gradient-2" x1="0.5" y1="1.225" x2="0.5" y2="0.311" gradientUnits="objectBoundingBox">
      <stop offset="0" stop-color="#fff200"/>
      <stop offset="0.01" stop-color="#f15a29"/>
    </linearGradient>
    <linearGradient id="linear-gradient-3" x2="0.5" y2="1" gradientUnits="objectBoundingBox">
      <stop offset="0" stop-color="#48c6ff"/>
      <stop offset="1" stop-color="#bd34fe"/>
    </linearGradient>
    <linearGradient id="linear-gradient-4" x1="0.5" x2="0.5" y2="1" gradientUnits="objectBoundingBox">
      <stop offset="0" stop-color="#ffdc34"/>
      <stop offset="1" stop-color="#ffa800"/>
    </linearGradient>
    <filter id="Rectangle_1" x="1840.713" y="0" width="619" height="619" filterUnits="userSpaceOnUse">
      <feOffset dx="5" dy="5" input="SourceAlpha"/>
      <feGaussianBlur stdDeviation="2.5" result="blur"/>
      <feFlood flood-opacity="0.161"/>
      <feComposite operator="in" in2="blur"/>
    </filter>
    <filter id="Rectangle_1-2" x="1840.713" y="0" width="619" height="619" filterUnits="userSpaceOnUse">
      <feOffset dx="5" dy="5" input="SourceAlpha"/>
      <feGaussianBlur stdDeviation="2.5" result="blur-2"/>
      <feFlood flood-color="#a7a7a7" flood-opacity="0.161" result="color"/>
      <feComposite operator="out" in="SourceGraphic" in2="blur-2"/>
      <feComposite operator="in" in="color"/>
      <feComposite operator="in" in2="SourceGraphic"/>
    </filter>
    <filter id="Ellipse_1" x="1929.806" y="88.445" width="481.45" height="481.449" filterUnits="userSpaceOnUse">
      <feOffset dx="25" dy="25" input="SourceAlpha"/>
      <feGaussianBlur stdDeviation="12.5" result="blur-3"/>
      <feFlood flood-opacity="0.729"/>
      <feComposite operator="in" in2="blur-3"/>
      <feComposite in="SourceGraphic"/>
    </filter>
  </defs>
  <g id="back" transform="translate(-6152.787 -10363.5)">
    <rect id="Rectangle_24" data-name="Rectangle 24" width="2423" height="604" transform="translate(6177 10366)" fill="rgba(255,255,255,0.25)"/>
    <g id="JS" transform="translate(7620.417 10413)">
      <path id="Path_4" data-name="Path 4" d="M3,3H86V93H3V3M24.811,78.2a12.1,12.1,0,0,0,11.712,7.75c6.917,0,11.666-4,11.666-12.75V44.3H40.35V73c0,4.3-1.614,5.4-4.15,5.4-2.674,0-3.781-2-5.026-4.35L24.811,78.2m27.574-.9c2.306,4.9,6.963,8.65,14.248,8.65,7.378,0,12.911-4.15,12.911-11.8,0-7.05-3.735-10.2-10.375-13.3l-1.937-.9c-3.366-1.55-4.8-2.6-4.8-5.1a3.529,3.529,0,0,1,3.735-3.65c2.213,0,3.689,1.05,5.026,3.65l6.041-4.35C74.7,45.7,71.1,43.85,66.167,43.85c-6.963,0-11.436,4.8-11.436,11.15,0,6.9,3.735,10.15,9.361,12.75l1.937.9c3.6,1.7,5.718,2.75,5.718,5.65,0,2.4-2.075,4.15-5.3,4.15-3.827,0-6.041-2.15-7.7-5.15l-6.363,4Z" transform="translate(-3 -3)" fill="#ffca28"/>
    </g>
    <g id="TS" transform="translate(7355.115 10790.696) rotate(-15.009)">
      <path id="Path_5" data-name="Path 5" d="M46,46v90h90V46Zm68.387,43.714h0c.863,0,1.844.047,2.582.127A10.44,10.44,0,0,1,124.3,93.9c.991,1.216,1.33,1.748,1.258,1.976a16.659,16.659,0,0,1-2.889,2.069,17.789,17.789,0,0,1-2.967,1.833c-.161,0-.5-.345-.981-1.009a4.5,4.5,0,0,0-3.354-2.054,3.79,3.79,0,0,0-3.7,1.3,3.515,3.515,0,0,0-.212,3.26c.547,1.168,1.537,1.815,5.331,3.478,4.376,1.919,6.593,3.232,8.208,4.862a10.1,10.1,0,0,1,2.891,6.648,12.289,12.289,0,0,1-.429,4.4c-.981,3.3-3.626,5.717-7.5,6.854a14.544,14.544,0,0,1-3.056.574,26.9,26.9,0,0,1-4.96-.139,15.655,15.655,0,0,1-8.84-4.552,13.117,13.117,0,0,1-2.066-3.121c0-.149.074-.233.365-.418.865-.55,5.822-3.383,5.918-3.383a2.625,2.625,0,0,1,.575.678,14.334,14.334,0,0,0,2.754,2.78,7.4,7.4,0,0,0,2.267.942,6.671,6.671,0,0,0,1.927.153,6.077,6.077,0,0,0,1.913-.159,4.4,4.4,0,0,0,2.892-2.063c.2-.4.2-.453.2-1.429v-1.012l-.244-.483c-.59-1.17-1.86-1.974-5.878-3.714a47.137,47.137,0,0,1-4.988-2.487,11.6,11.6,0,0,1-4.325-4.533c-.911-1.781-1.047-2.444-1.049-5.121a7.39,7.39,0,0,1,.428-3.408,10,10,0,0,1,2.09-3.516,11.19,11.19,0,0,1,7.148-3.342c.355-.034.831-.047,1.349-.045Zm-23.9.414h0c5.35,0,8.417.021,8.466.052.093.057.1.523.1,3.5V97.1l-5.338.019-5.338.019V112.3c0,8.337-.017,15.207-.04,15.268-.038.1-.448.11-3.922.11H80.536l-.04-.157c-.026-.086-.045-6.957-.045-15.268V97.141l-5.338-.019-5.34-.022V93.715a19.8,19.8,0,0,1,.09-3.478c.073-.076,2.8-.1,14.537-.107h6.084Z" transform="translate(-46 -46)" fill="#0288d1" fill-rule="evenodd"/>
    </g>
    <g id="React" transform="translate(7367 10417.048)">
      <path id="Path_6" data-name="Path 6" d="M81.5,60.327a14.051,14.051,0,1,1-9.92,4.191,14.023,14.023,0,0,1,9.92-4.191M46.936,134.491c4.7,2.85,15-1.5,26.874-12.748A181.53,181.53,0,0,1,62.539,107.5a168.734,168.734,0,0,1-17.916-2.7c-3.807,16.048-2.389,27.071,2.314,29.7m5.3-43.044-2.165-3.824a59.538,59.538,0,0,0-2.165,6.449c2.016.45,4.255.825,6.569,1.2l-2.24-3.824m48.822-5.7L107.105,74.5l-6.047-11.248c-2.24-3.974-4.628-7.5-6.793-11.023C90.234,52,85.979,52,81.5,52s-8.734,0-12.765.225c-2.165,3.524-4.554,7.049-6.793,11.023L55.9,74.5l6.047,11.248c2.24,3.974,4.628,7.5,6.793,11.023C72.766,97,77.021,97,81.5,97s8.734,0,12.765-.225c2.165-3.524,4.554-7.049,6.793-11.023M81.5,35.356c-1.418,1.65-2.911,3.374-4.4,5.4h8.8c-1.493-2.025-2.986-3.749-4.4-5.4m0,78.288c1.418-1.65,2.911-3.375,4.4-5.4H77.1c1.493,2.025,2.986,3.749,4.4,5.4m34.489-99.135c-4.628-2.85-14.93,1.5-26.8,12.748A181.523,181.523,0,0,1,100.461,41.5a168.749,168.749,0,0,1,17.916,2.7c3.807-16.048,2.389-27.071-2.389-29.7m-5.226,43.044,2.165,3.824a59.538,59.538,0,0,0,2.165-6.449c-2.016-.45-4.255-.825-6.569-1.2l2.24,3.824M121.588,4.685c10.974,6.3,12.168,22.872,7.54,42.219,18.961,5.624,32.623,14.923,32.623,27.6s-13.661,21.972-32.623,27.6c4.628,19.347,3.434,35.92-7.54,42.219-10.9,6.3-25.755-.9-40.088-14.623-14.333,13.723-29.189,20.922-40.162,14.623-10.9-6.3-12.093-22.872-7.465-42.219C14.911,96.472,1.25,87.173,1.25,74.5S14.911,52.528,33.873,46.9c-4.628-19.347-3.434-35.92,7.465-42.219,10.974-6.3,25.829.9,40.162,14.623C95.833,5.585,110.689-1.614,121.588,4.685M119.423,74.5a169.291,169.291,0,0,1,6.644,16.947c15.677-4.724,24.486-11.473,24.486-16.947s-8.809-12.223-24.486-16.947A169.3,169.3,0,0,1,119.423,74.5m-75.846,0a169.291,169.291,0,0,1-6.644-16.947C21.256,62.277,12.448,69.026,12.448,74.5s8.809,12.223,24.486,16.947A169.288,169.288,0,0,1,43.577,74.5m67.186,16.947-2.24,3.824c2.314-.375,4.554-.75,6.569-1.2a59.537,59.537,0,0,0-2.165-6.449l-2.165,3.824m-21.574,30.3c11.87,11.248,22.171,15.6,26.8,12.748,4.778-2.625,6.2-13.648,2.389-29.7a168.749,168.749,0,0,1-17.916,2.7,181.521,181.521,0,0,1-11.272,14.248M52.237,57.553l2.24-3.824c-2.314.375-4.554.75-6.569,1.2a59.537,59.537,0,0,0,2.165,6.449l2.165-3.824m21.574-30.3c-11.87-11.248-22.171-15.6-26.874-12.748-4.7,2.625-6.121,13.648-2.314,29.7a168.744,168.744,0,0,1,17.916-2.7A181.533,181.533,0,0,1,73.811,27.257Z" transform="translate(-1.25 -2.383)" fill="#00bcd4"/>
    </g>
    <g id="Sass" transform="translate(7527.5 10767.402)">
      <path id="Sass-2" data-name="Sass" d="M213.023,66.055c-4.807-18.862-36.08-25.06-65.679-14.546-17.617,6.26-36.68,16.081-50.394,28.9-16.3,15.249-18.9,28.519-17.828,34.065,3.778,19.565,30.591,32.359,41.611,41.844v.057c-3.251,1.6-27.035,13.637-32.6,25.944-5.872,12.985.935,22.3,5.443,23.556,13.967,3.887,28.3-3.1,36-14.593,7.433-11.087,6.813-25.4,3.582-32.524a42.836,42.836,0,0,1,16.252-.931C168.041,160.01,171.7,171.64,171,176.51s-4.606,7.547-5.914,8.353-1.706,1.091-1.6,1.69c.16.874.765.843,1.876.651,1.535-.258,9.78-3.959,10.137-12.943.449-11.408-10.483-24.171-29.841-23.835-7.971.14-12.985.894-16.609,2.244-.269-.3-.537-.61-.822-.91-11.967-12.768-34.09-21.8-33.155-38.965.341-6.239,2.512-22.672,42.511-42.6,32.767-16.329,59-11.832,63.534-1.876C207.6,82.54,187.1,108.98,153.071,112.795c-12.964,1.453-19.793-3.572-21.488-5.443-1.788-1.969-2.052-2.057-2.724-1.69-1.085.6-.4,2.342,0,3.381,1.018,2.646,5.185,7.335,12.292,9.666,6.255,2.052,21.473,3.179,39.885-3.939,20.614-7.986,36.716-30.172,31.986-48.714ZM125.308,162.17a27.161,27.161,0,0,1-.222,15.869,25.742,25.742,0,0,1-1.272,3.142,29.693,29.693,0,0,1-4.905,7.149c-6.172,6.731-14.789,9.279-18.485,7.133-3.99-2.316-1.99-11.806,5.159-19.364,7.7-8.136,18.769-13.367,18.769-13.367l-.015-.032.972-.532Z" transform="translate(-78.91 -46.414)" fill="#ec407a" stroke="#ec407a" stroke-width="16.287"/>
    </g>
    <g id="GraphQL" transform="translate(7159.997 10381.366) rotate(15.009)">
      <path id="Path_7" data-name="Path 7" d="M120.392,25.973l46.67,26.907A20.224,20.224,0,1,1,186.49,86.411v53.835a20.208,20.208,0,1,1-19.9,33.089l-46.385,26.743a20.227,20.227,0,1,1-38.615.651l-46.658-26.9A20.224,20.224,0,1,1,15.51,140.246V86.411A20.214,20.214,0,1,1,34.917,52.857L81.6,25.943a20.228,20.228,0,1,1,38.793.03Zm-4.862,8.29,46.781,26.971a20.175,20.175,0,0,0,14.558,25.129v53.9c-.263.064-.524.134-.784.208L114.986,34.8Q115.263,34.538,115.53,34.263Zm-28.5.551L25.93,140.485q-.4-.116-.8-.214V86.364A20.175,20.175,0,0,0,39.681,61.2L86.449,34.241q.283.292.578.573ZM106.652,39.6l61.085,105.647a20.263,20.263,0,0,0-5.693,9.86H39.958a20.1,20.1,0,0,0-5.689-9.835l61.1-105.667a20.454,20.454,0,0,0,11.287,0Zm9.307,153.236,46.477-26.8q-.209-.656-.373-1.325H39.932q-.1.394-.21.782l46.706,26.928a20.272,20.272,0,0,1,29.531.412Z" fill="#e535ab" fill-rule="evenodd"/>
    </g>
    <g id="py" transform="translate(7397.671 10582.082) rotate(15.009)">
      <path id="Path_12" data-name="Path 12" d="M39.325,2A13.578,13.578,0,0,0,25.743,15.581v7.978H46.115c1.852,0,3.372,2.707,3.372,4.559H15.581A13.579,13.579,0,0,0,2,41.7V59.654A13.579,13.579,0,0,0,15.584,73.235h5.6V60.509A13.538,13.538,0,0,1,34.718,46.927H59.649A13.542,13.542,0,0,0,73.23,33.389V15.581A13.579,13.579,0,0,0,59.646,2ZM35.906,9.645c1.9,0,3.419.57,3.419,3.372s-1.52,4.231-3.419,4.231c-1.852,0-3.372-1.425-3.372-4.226S34.054,9.645,35.906,9.645Z" transform="translate(-2 -2)" fill="#3c78aa"/>
      <path id="Path_13" data-name="Path 13" d="M59.041,7V19.726A13.534,13.534,0,0,1,45.507,33.3H20.581A13.534,13.534,0,0,0,7,46.837V64.644A13.581,13.581,0,0,0,20.581,78.225H40.906A13.581,13.581,0,0,0,54.487,64.649V56.671H34.11c-1.852,0-3.367-2.707-3.367-4.559H64.649A13.581,13.581,0,0,0,78.23,38.531V20.581A13.581,13.581,0,0,0,64.649,7ZM13.268,28.431l-.019.019a1.148,1.148,0,0,0,.18-.019ZM44.325,62.982c1.852,0,3.372,1.425,3.372,4.226a3.372,3.372,0,0,1-3.372,3.372c-1.9,0-3.419-.57-3.419-3.372S42.425,62.982,44.325,62.982Z" transform="translate(16.743 16.743)" fill="#fdd835"/>
    </g>
    <g id="netlfy" transform="translate(7680.629 10702.393) rotate(-15.009)">
      <path id="Path_14" data-name="Path 14" d="M84.717,41.91l-.042-.016a.193.193,0,0,1-.065-.039.325.325,0,0,1-.084-.276L86.813,27.6l10.73,10.726L86.384,43.07a.247.247,0,0,1-.1.016h-.045a.3.3,0,0,1-.058-.049,5.079,5.079,0,0,0-1.466-1.127Zm15.565-.851,11.471,11.467c2.382,2.384,3.574,3.573,4.01,4.954a5.724,5.724,0,0,1,.159.617L88.506,46.49l-.045-.016c-.107-.045-.237-.1-.237-.208s.13-.166.24-.211l.036-.013Zm15.172,20.718a21.552,21.552,0,0,1-3.7,4.223L98.82,78.929,82.092,75.443,82,75.427c-.149-.026-.305-.052-.305-.185a5.048,5.048,0,0,0-1.94-3.528.3.3,0,0,1-.029-.273.083.083,0,0,1,.007-.042L82.879,52.09l.013-.065c.016-.149.045-.318.179-.318A5.122,5.122,0,0,0,86.5,49.739a.243.243,0,0,1,.081-.081.388.388,0,0,1,.3.042l28.563,12.078ZM95.847,81.9,74.579,103.162l3.639-22.368.007-.032a.424.424,0,0,1,.016-.084.3.3,0,0,1,.182-.13l.033-.013A5.475,5.475,0,0,0,80.516,79a.443.443,0,0,1,.266-.179.267.267,0,0,1,.084,0L95.844,81.9ZM70.078,107.66l-2.4,2.4-26.5-38.294-.029-.042a.27.27,0,0,1-.078-.179.219.219,0,0,1,.065-.123l.032-.039c.078-.117.146-.237.221-.364l.058-.1.01-.01a.464.464,0,0,1,.149-.175.333.333,0,0,1,.218,0l29.363,6.052a.487.487,0,0,1,.227.1.245.245,0,0,1,.055.13,5.2,5.2,0,0,0,3.042,3.476c.081.042.045.13.01.227a.7.7,0,0,0-.045.136l-4.4,26.816Zm-5.011,5.006c-1.768,1.748-2.808,2.673-3.987,3.047a5.922,5.922,0,0,1-3.568,0c-1.381-.439-2.574-1.624-4.956-4.012L25.942,85.1,32.893,74.32a.445.445,0,0,1,.117-.14.313.313,0,0,1,.27,0,7.207,7.207,0,0,0,4.848-.244c.081-.032.162-.052.221.007a.561.561,0,0,1,.084.094l26.633,38.637ZM23.376,82.528l-6.109-6.107,12.056-5.139a.25.25,0,0,1,.1-.023c.1,0,.162.1.214.2q.181.279.383.542l.039.049a.125.125,0,0,1-.023.146Zm-8.813-8.81L6.836,66c-1.313-1.316-2.265-2.267-2.928-3.086L27.4,67.78l.088.016c.146.023.305.049.305.185s-.175.214-.325.273l-.065.029ZM2.556,58.938a5.917,5.917,0,0,1,.266-1.462C3.261,56.1,4.45,54.91,6.836,52.523l9.885-9.882q6.829,9.907,13.694,19.784c.078.106.169.226.078.313a8.211,8.211,0,0,0-1.17,1.559.474.474,0,0,1-.149.185.148.148,0,0,1-.123.007h-.007L2.559,58.935ZM19.369,40,32.66,26.711c1.251.546,5.8,2.466,9.862,4.181,3.077,1.3,5.882,2.485,6.766,2.868a.329.329,0,0,1,.208.162.294.294,0,0,1,0,.175,5.924,5.924,0,0,0,1.547,5.409c.091.091,0,.218-.075.325l-.042.065-13.5,20.9a.409.409,0,0,1-.127.146.326.326,0,0,1-.253,0,6.732,6.732,0,0,0-1.609-.218,8.867,8.867,0,0,0-1.544.185.21.21,0,0,1-.162-.013.621.621,0,0,1-.133-.153ZM35.344,24.024l17.21-17.2c2.382-2.381,3.574-3.573,4.956-4.009a5.923,5.923,0,0,1,3.568,0c1.378.435,2.57,1.627,4.956,4.009L69.76,10.55,57.522,29.5a.458.458,0,0,1-.12.143.318.318,0,0,1-.266,0,6.208,6.208,0,0,0-5.687,1.1c-.078.081-.2.032-.3-.01-1.6-.7-14.028-5.945-15.809-6.7ZM72.359,13.149l11.3,11.3L80.938,41.3v.045a.4.4,0,0,1-.023.11c-.033.062-.091.071-.149.091a5.417,5.417,0,0,0-1.622.806.455.455,0,0,0-.058.052.219.219,0,0,1-.12.075.338.338,0,0,1-.127-.023L61.62,35.147l-.032-.016c-.11-.042-.24-.1-.24-.208a6.5,6.5,0,0,0-.916-2.709c-.084-.136-.175-.276-.1-.416ZM60.723,38.61l16.144,6.835a.4.4,0,0,1,.224.172.315.315,0,0,1,0,.169,4.01,4.01,0,0,0-.091.78v.452c0,.114-.114.162-.221.2l-.032.013Q58.78,54.9,40.794,62.537a.19.19,0,0,1-.154-.048c-.091-.091,0-.214.078-.325l.042-.062,13.265-20.53.026-.039c.075-.123.162-.26.305-.26l.133.019a6.6,6.6,0,0,0,.838.078,6,6,0,0,0,5-2.654.474.474,0,0,1,.1-.117.3.3,0,0,1,.292.01ZM42.236,65.786l36.346-15.5a.155.155,0,0,1,.1.052,5.227,5.227,0,0,0,.53.455l.081.052c.071.039.146.088.153.162a.266.266,0,0,1-.007.075L76.33,70.207l-.013.078c-.019.146-.039.315-.179.315a5.118,5.118,0,0,0-4.062,2.508l-.016.023a.469.469,0,0,1-.149.169.325.325,0,0,1-.208,0L42.717,67.322c-.026,0-.448-1.533-.481-1.536Z" transform="translate(-2.556 -2.537)" fill="#00bfa5"/>
    </g>
    <g id="gc" transform="matrix(0.94, 0.342, -0.342, 0.94, 7808.764, 10381.366)">
      <path id="Path_15" data-name="Path 15" d="M114.444,2166.26h4.964l14.148-14.048.7-5.965A63.757,63.757,0,0,0,30.8,2177.055a7.745,7.745,0,0,1,4.964-.3l28.3-4.634s1.44-2.366,2.184-2.218a35.477,35.477,0,0,1,48.3-3.647Z" transform="translate(-11.16 -2130.44)" fill="#f44336"/>
      <path id="Path_16" data-name="Path 16" d="M186.645,2186.24a63.226,63.226,0,0,0-19.212-30.758L147.575,2175.2a34.947,34.947,0,0,1,12.957,27.8v3.5a17.55,17.55,0,0,1,0,35.1H125.186l-3.525,3.549V2266.2l3.525,3.5h35.346a45.938,45.938,0,0,0,44.258-32.1,45.477,45.477,0,0,0-18.145-51.356Z" transform="translate(-44.091 -2139.629)" fill="#448aff"/>
      <path id="Path_17" data-name="Path 17" d="M55.9,2318.38H91.245v-28.1H55.9a17.675,17.675,0,0,1-7.292-1.575l-4.97,1.525L29.39,2304.278l-1.241,4.929a45.937,45.937,0,0,0,27.751,9.168Z" transform="translate(-10.2 -2188.515)" fill="#43a047"/>
      <path id="Path_18" data-name="Path 18" d="M45.7,2191.61a45.944,45.944,0,0,0-43.3,31.08,45.453,45.453,0,0,0,15.541,50.748l20.5-20.357a17.584,17.584,0,1,1,23.382-23.216l20.5-20.357a46.035,46.035,0,0,0-36.623-17.9Z" transform="translate(0.002 -2152.886)" fill="#ffc107"/>
    </g>
    <g id="Azure" transform="translate(6206.695 10450.36) rotate(-15.009)">
      <path id="Path_19" data-name="Path 19" d="M44.051,3.2H80.782L42.655,115.823A5.856,5.856,0,0,1,37.1,119.8H8.516a5.829,5.829,0,0,1-5.538-7.7L38.506,7.175A5.856,5.856,0,0,1,44.058,3.2Z" transform="translate(-2.67 -3.205)" fill="#01579b"/>
      <path id="Path_20" data-name="Path 20" d="M68.7,14.6H10.459a2.683,2.683,0,0,0-1.842,4.653L46.04,54.071a5.882,5.882,0,0,0,4.009,1.577H83.024Z" transform="translate(26.056 60.94)" fill="#1976d2"/>
      <path id="Path_21" data-name="Path 21" d="M55.431,7.163a5.842,5.842,0,0,0-5.538-3.957H8.96A5.849,5.849,0,0,1,14.5,7.163l35.521,104.93a5.835,5.835,0,0,1-5.545,7.7H85.414a5.829,5.829,0,0,0,5.545-7.688L55.431,7.169Z" transform="translate(32.86 -3.199)" fill="#29b6f6"/>
    </g>
    <g id="vscode" transform="translate(7734.145 10783.94) rotate(-15.009)">
      <path id="Path_22" data-name="Path 22" d="M174.6,19.376l-37.284-18a11.25,11.25,0,0,0-12.86,2.191L2.4,115.142a7.572,7.572,0,0,0,.008,11.179l9.97,9.087a7.525,7.525,0,0,0,9.629.429L168.986,24.045A7.487,7.487,0,0,1,181,30.026v-.434a11.341,11.341,0,0,0-6.4-10.216Z" transform="translate(0.061 -0.257)" fill="#0065a9"/>
      <g id="Group_2" data-name="Group 2" transform="translate(0 43.368)">
        <path id="Path_23" data-name="Path 23" d="M174.6,142.16l-37.284,18a11.249,11.249,0,0,1-12.86-2.191L2.4,46.394a7.572,7.572,0,0,1,.008-11.179l9.97-9.087a7.525,7.525,0,0,1,9.629-.429L168.986,137.491A7.486,7.486,0,0,0,181,131.51v.434A11.341,11.341,0,0,1,174.6,142.16Z" transform="translate(0.061 -24.162)" fill="#007acc"/>
      </g>
      <g id="Group_3" data-name="Group 3" transform="translate(124.514)">
        <path id="Path_24" data-name="Path 24" d="M81.612,179.625A11.254,11.254,0,0,1,68.75,177.43a6.623,6.623,0,0,0,11.309-4.7V8.266A6.623,6.623,0,0,0,68.75,3.57,11.256,11.256,0,0,1,81.612,1.375l37.277,17.973A11.341,11.341,0,0,1,125.3,29.567V151.434a11.341,11.341,0,0,1-6.408,10.218Z" transform="translate(-68.75 -0.258)" fill="#1f9cf0"/>
      </g>
      <g id="Group_4" data-name="Group 4" opacity="0.25">
        <path id="Path_25" data-name="Path 25" d="M128.255,179.971a11.236,11.236,0,0,0,8.976-.346l37.255-17.973a11.342,11.342,0,0,0,6.4-10.219V29.567a11.342,11.342,0,0,0-6.4-10.219L137.231,1.375A11.245,11.245,0,0,0,124.377,3.57L53.057,68.8,21.992,45.162a7.517,7.517,0,0,0-9.623.429L2.406,54.678A7.576,7.576,0,0,0,2.4,65.857L29.338,90.5,2.4,115.143a7.575,7.575,0,0,0,.008,11.179l9.964,9.087a7.517,7.517,0,0,0,9.623.429L53.057,112.2l71.32,65.235A11.249,11.249,0,0,0,128.255,179.971ZM135.68,49.316,81.564,90.5l54.115,41.184Z" transform="translate(0.061 -0.258)" fill="#fff" fill-rule="evenodd"/>
      </g>
    </g>
    <g id="icons8-github" transform="translate(7442.038 10434.321)">
      <path id="Path_46" data-name="Path 46" d="M592.844,93.231a2.383,2.383,0,1,0,2.383,2.383,2.383,2.383,0,0,0-2.383-2.383Z" transform="translate(-350.137 -5.387)" fill="#f1bc19"/>
      <path id="Path_47" data-name="Path 47" d="M189.153,101a88.153,88.153,0,1,0,88.153,88.153A88.153,88.153,0,0,0,189.153,101Z" transform="translate(-10.773 -10.773)" fill="#e4e4f9"/>
      <path id="Path_48" data-name="Path 48" d="M623.3,85.462a9.53,9.53,0,1,0,9.53,9.53A9.53,9.53,0,0,0,623.3,85.462Z" transform="translate(-366.298)" fill="#f1bc19"/>
      <path id="Path_49" data-name="Path 49" d="M665.15,170.923a4.765,4.765,0,1,0,4.765,4.765,4.765,4.765,0,0,0-4.765-4.765Z" transform="translate(-398.618 -59.254)" fill="#8889b9"/>
      <path id="Path_50" data-name="Path 50" d="M252.237,494.122A4.765,4.765,0,1,0,257,498.886a4.765,4.765,0,0,0-4.763-4.764ZM94.992,458.385a9.53,9.53,0,1,0,9.53,9.53A9.53,9.53,0,0,0,94.992,458.385Z" transform="translate(0 -258.563)" fill="#fbcd59"/>
      <path id="Path_51" data-name="Path 51" d="M183.457,660.385a4.765,4.765,0,1,0,4.765,4.765A4.765,4.765,0,0,0,183.457,660.385Z" transform="translate(-64.641 -398.618)" fill="#8889b9"/>
      <path id="Path_52" data-name="Path 52" d="M130.264,289.118a5.956,5.956,0,1,0,5.956,5.956A5.956,5.956,0,0,0,130.264,289.118Zm145.333-40.5a3.574,3.574,0,1,0,3.574,3.574,3.574,3.574,0,0,0-3.574-3.574Z" transform="translate(-26.934 -113.121)" fill="#fff"/>
      <g id="Group_13" data-name="Group 13" transform="translate(118.936 118.638)">
        <path id="Path_53" data-name="Path 53" d="M257.833,199.087a57.776,57.776,0,1,0,57.776,57.776,57.776,57.776,0,0,0-57.776-57.776Z" transform="translate(-198.39 -197.419)" fill="#a3a3cd"/>
        <path id="Path_54" data-name="Path 54" d="M254.063,312.535a59.443,59.443,0,1,1,59.443-59.443,59.443,59.443,0,0,1-59.443,59.443Zm0-115.551a56.108,56.108,0,1,0,56.108,56.108A56.108,56.108,0,0,0,254.063,196.984Z" transform="translate(-194.619 -193.648)" fill="#472b29"/>
      </g>
      <g id="Group_14" data-name="Group 14" transform="translate(129.538 128.744)">
        <path id="Path_55" data-name="Path 55" d="M278.034,226.6a48.841,48.841,0,1,0,48.841,48.841A48.841,48.841,0,0,0,278.034,226.6Z" transform="translate(-229.192 -226.605)" fill="#565fa1"/>
      </g>
      <g id="Group_15" data-name="Group 15" transform="translate(219.178 153.357)">
        <path id="Path_56" data-name="Path 56" d="M526.983,319.081a1.193,1.193,0,0,1-1.139-.843q-.314-1.026-.677-2.032a46.349,46.349,0,0,0-3.5-7.55,1.19,1.19,0,1,1,2.061-1.191,48.713,48.713,0,0,1,3.683,7.936c.253.708.491,1.418.71,2.137a1.191,1.191,0,0,1-.791,1.489A1.09,1.09,0,0,1,526.983,319.081Z" transform="translate(-521.504 -306.865)" fill="#472b29"/>
      </g>
      <g id="Group_16" data-name="Group 16" transform="translate(128.644 128.644)">
        <path id="Path_57" data-name="Path 57" d="M276.014,325.45a49.586,49.586,0,1,1,37.253-82.439q1.069,1.2,2.061,2.48a1.19,1.19,0,1,1-1.88,1.46c-.629-.808-1.287-1.594-1.963-2.359a46.942,46.942,0,1,0,11.353,24.187,1.191,1.191,0,0,1,1-1.353,1.179,1.179,0,0,1,1.356,1,50.242,50.242,0,0,1,.555,7.436A49.717,49.717,0,0,1,276.014,325.45Z" transform="translate(-226.279 -226.279)" fill="#472b29"/>
      </g>
      <g id="Group_17" data-name="Group 17" transform="translate(140.854 144.476)">
        <path id="Path_58" data-name="Path 58" d="M333.708,295.651a26.9,26.9,0,0,0-1.158-13.861c-8.629,0-15.1,6.471-15.1,6.471l.048.055c-.152,0-.3-.021-.455-.021H295.6c-.1,0-.2.014-.3.014.007-.01.04-.048.04-.048s-6.473-6.471-15.1-6.471a27.052,27.052,0,0,0-1.191,13.74A22.61,22.61,0,0,0,295.6,333.562h2.556a11.6,11.6,0,0,0-5.94,8.334c-4.1.553-9.48.429-11.979-3.321-4.315-6.473-6.473-6.473-8.629-6.473s-2.159,2.159,0,4.315,2.159,2.159,4.315,6.473c1.839,3.676,6.7,7.857,16.106,6.345v8.394a11.546,11.546,0,0,0,.455,3.054,60.532,60.532,0,0,0,27.792-.36,11.655,11.655,0,0,0,.341-2.692V343.773a11.62,11.62,0,0,0-6.13-10.211h2.556a22.608,22.608,0,0,0,16.668-37.91Z" transform="translate(-268.793 -280.599)" fill="#fefdef"/>
        <path id="Path_59" data-name="Path 59" d="M302.5,360.616a56.256,56.256,0,0,1-13-1.468,1.193,1.193,0,0,1-.874-.846,12.613,12.613,0,0,1-.5-3.366V347.9c-10.871,1.225-14.96-5.132-15.979-7.174-2.073-4.143-2.073-4.143-4.091-6.164-1.67-1.67-2.332-3.474-1.775-4.82a2.637,2.637,0,0,1,2.616-1.53c2.9,0,5.287.5,9.621,7,2,3,6.376,3.285,9.99,2.9a12.688,12.688,0,0,1,3.39-6.085,23.794,23.794,0,0,1-16.844-39.557,28.649,28.649,0,0,1,1.346-13.75,1.191,1.191,0,0,1,1.129-.815c8,0,14.131,5.146,15.61,6.5h21.1c1.48-1.358,7.612-6.5,15.61-6.5a1.191,1.191,0,0,1,1.129.815,28.523,28.523,0,0,1,1.313,13.89,23.8,23.8,0,0,1-16.963,39.43,12.757,12.757,0,0,1,3.776,9.039v13.857a12.757,12.757,0,0,1-.376,2.969,1.185,1.185,0,0,1-.886.884,66.968,66.968,0,0,1-15.337,1.827Zm-11.746-3.624a59.181,59.181,0,0,0,25.8-.353,9.707,9.707,0,0,0,.162-1.7V341.08a10.455,10.455,0,0,0-5.508-9.163,1.192,1.192,0,0,1,.567-2.24h2.559a21.416,21.416,0,0,0,15.789-35.914,1.194,1.194,0,0,1-.286-1.058,25.192,25.192,0,0,0-.858-12.394c-6.838.365-12.146,4.941-13.2,5.918a1.175,1.175,0,0,1-1.022.586l-.245-.014-21.616-.01a1.547,1.547,0,0,1-1.053-.431l-.05.05c-.06-.057-5.809-5.694-13.4-6.1a25.3,25.3,0,0,0-.889,12.279,1.189,1.189,0,0,1-.3,1.058,21.418,21.418,0,0,0,15.7,36.03h2.556a1.192,1.192,0,0,1,.567,2.24,10.351,10.351,0,0,0-5.332,7.479,1.188,1.188,0,0,1-1.017.989c-6.347.853-10.883-.472-13.13-3.838C272.58,330.6,270.8,330.6,268.9,330.6a.814.814,0,0,0-.431.076c-.06.152.1,1.036,1.272,2.206,2.294,2.294,2.378,2.461,4.539,6.783.879,1.754,4.553,7.369,14.85,5.7a1.217,1.217,0,0,1,.963.269,1.2,1.2,0,0,1,.419.908v8.394a9.474,9.474,0,0,0,.246,2.056Z" transform="translate(-266.094 -277.905)" fill="#472b29"/>
      </g>
      <g id="Group_18" data-name="Group 18" transform="translate(187.512 181.026)">
        <path id="Path_60" data-name="Path 60" d="M435.322,399.043c-2.144,4.751-6.852,8.7-15.138,9.363" transform="translate(-419.588 -398.446)" fill="#fefdef"/>
        <path id="Path_61" data-name="Path 61" d="M418.838,407.651a.6.6,0,0,1-.048-1.189c9.065-.727,12.966-5.306,14.643-9.015a.6.6,0,0,1,1.086.488c-2.556,5.663-8.108,9.111-15.634,9.714a.306.306,0,0,1-.047,0Z" transform="translate(-418.242 -397.094)" fill="#472b29"/>
      </g>
      <g id="Group_19" data-name="Group 19" transform="translate(203.822 171.613)">
        <path id="Path_62" data-name="Path 62" d="M473.443,368.339a17.57,17.57,0,0,1-.072,5.58" transform="translate(-472.776 -367.744)" fill="#fefdef"/>
        <path id="Path_63" data-name="Path 63" d="M472.028,373.17a.521.521,0,0,1-.1-.01.593.593,0,0,1-.484-.689,17.117,17.117,0,0,0,.069-5.392.595.595,0,1,1,1.177-.172,18.013,18.013,0,0,1-.074,5.768A.59.59,0,0,1,472.028,373.17Z" transform="translate(-471.43 -366.399)" fill="#472b29"/>
      </g>
      <g id="Group_20" data-name="Group 20" transform="translate(199.423 163.193)">
        <path id="Path_64" data-name="Path 64" d="M459.029,340.875a10.732,10.732,0,0,1,3.545,4.9" transform="translate(-458.434 -340.281)" fill="#fefdef"/>
        <path id="Path_65" data-name="Path 65" d="M461.227,345.027a.6.6,0,0,1-.555-.379,10.065,10.065,0,0,0-3.336-4.627.6.6,0,0,1,.691-.974,11.251,11.251,0,0,1,3.755,5.168.6.6,0,0,1-.338.772.623.623,0,0,1-.217.04Z" transform="translate(-457.086 -338.939)" fill="#472b29"/>
      </g>
    </g>
    <path id="nextjs" d="M41.616,27.813H74.884v2.649H44.665V50.4H73.081v2.649H44.665v21.9H75.229V77.6H41.616Zm36.248,0H81.4l15.665,21.9,16.013-21.9L134.845,0,99.07,52.01,117.52,77.6h-3.69L97.062,54.3,80.221,77.6h-3.6L95.189,52Zm40.958,2.649V27.813H156.73v2.649H139.266V77.6h-3.049V30.463H118.811ZM0,27.813H3.829l52.564,78.825L34.671,77.6,3.189,31.576,3.049,77.6H0ZM156.424,74.146a1.11,1.11,0,1,1,1.09-1.107,1.079,1.079,0,0,1-1.09,1.107Zm3-2.917h1.633a1.49,1.49,0,0,0,1.615,1.483c1.062,0,1.664-.641,1.664-1.838V63.285H166v7.6a3.074,3.074,0,0,1-3.307,3.4,2.993,2.993,0,0,1-3.265-3.053Zm8.744-.094h1.647c.143,1.016,1.135,1.664,2.566,1.664,1.337,0,2.315-.7,2.315-1.643,0-.818-.623-1.309-2.04-1.643l-1.392-.348c-1.935-.456-2.82-1.392-2.82-2.973,0-1.911,1.556-3.185,3.892-3.185,2.176,0,3.763,1.274,3.86,3.081h-1.619a2.047,2.047,0,0,0-2.263-1.608c-1.312,0-2.186.634-2.186,1.6,0,.766.564,1.208,1.956,1.535l1.18.289c2.2.512,3.1,1.392,3.1,3.022,0,2.054-1.591,3.342-4.125,3.342-2.374,0-3.968-1.229-4.087-3.15Z" transform="translate(7150.993 10821.313)"/>
    <g id="_202809_redis_icon" data-name="202809_redis_icon" transform="translate(7150.1 10551.027) rotate(-15.009)">
      <path id="Path_104" data-name="Path 104" d="M163.941,750.217c-8.5,4.431-52.537,22.537-61.911,27.423s-14.583,4.843-21.989,1.3-54.268-22.469-62.709-26.506c-4.22-2.015-6.438-3.718-6.438-5.326v-16.1S71.9,717.729,81.751,714.2s13.265-3.661,21.647-.59,58.5,12.112,66.783,15.146v15.873C170.18,746.216,168.268,747.964,163.941,750.217Z" transform="translate(-0.017 -528.908)" fill="#a42122"/>
      <path id="Path_105" data-name="Path 105" d="M163.925,630.765c-8.5,4.429-52.537,22.537-61.911,27.424s-14.583,4.841-21.989,1.3-54.267-22.471-62.709-26.5S8.7,626.177,16.99,622.93s54.9-21.533,64.747-25.067,13.266-3.661,21.647-.59,52.155,20.494,60.439,23.528S172.426,626.333,163.925,630.765Z" transform="translate(-0.002 -425.56)" fill="#d82f27"/>
      <path id="Path_106" data-name="Path 106" d="M163.941,515.054c-8.5,4.431-52.537,22.537-61.911,27.425s-14.583,4.839-21.989,1.3-54.268-22.469-62.709-26.5c-4.22-2.017-6.438-3.716-6.438-5.324v-16.1S71.9,482.566,81.751,479.032s13.265-3.661,21.647-.591,58.5,12.111,66.783,15.146v15.874C170.18,511.052,168.268,512.8,163.941,515.054Z" transform="translate(-0.017 -320)" fill="#a42122"/>
      <path id="Path_107" data-name="Path 107" d="M163.925,395.6c-8.5,4.431-52.537,22.536-61.911,27.425s-14.583,4.839-21.989,1.3S25.758,401.853,17.316,397.82s-8.618-6.811-.326-10.06,54.9-21.532,64.747-25.065S95,359.034,103.384,362.1s52.155,20.492,60.439,23.527S172.426,391.171,163.925,395.6Z" transform="translate(-0.002 -216.654)" fill="#d82f27"/>
      <path id="Path_108" data-name="Path 108" d="M163.943,271.177c-8.5,4.431-52.537,22.537-61.911,27.426s-14.583,4.839-21.989,1.3-54.268-22.472-62.709-26.5c-4.22-2.017-6.438-3.718-6.438-5.324v-16.1s61-13.286,70.857-16.819,13.265-3.661,21.647-.591,58.5,12.111,66.783,15.146v15.873C170.182,267.176,168.27,268.922,163.943,271.177Z" transform="translate(-0.019 -103.353)" fill="#a42122"/>
      <path id="Path_109" data-name="Path 109" d="M163.924,151.718c-8.5,4.431-52.537,22.537-61.911,27.426s-14.583,4.839-21.989,1.3-54.268-22.47-62.709-26.5-8.618-6.812-.326-10.06,54.9-21.531,64.747-25.065,13.266-3.661,21.647-.59,52.155,20.493,60.439,23.528S172.425,147.288,163.924,151.718Z" fill="#d82f27"/>
      <path id="Path_110" data-name="Path 110" d="M610.264,203.392l-13.8,1.432-3.091,7.435-4.991-8.3-15.937-1.432,11.892-4.289-3.568-6.583,11.133,4.354,10.5-3.437-2.838,6.808Z" transform="translate(-498.87 -67.18)" fill="#fff"/>
      <path id="Path_111" data-name="Path 111" d="M547.546,489.724l-25.76-10.684,36.912-5.665Z" transform="translate(-453.869 -317.443)" fill="#fff"/>
      <ellipse id="Ellipse_10" data-name="Ellipse 10" cx="19.729" cy="7.647" rx="19.729" ry="7.647" transform="translate(38.235 140.344)" fill="#fff"/>
      <path id="Path_112" data-name="Path 112" d="M1057.29,314.947l21.846,8.633-21.827,8.624Z" transform="translate(-929.585 -176.704)" fill="#791514"/>
      <path id="Path_113" data-name="Path 113" d="M840.825,324.507l24.168-9.56.019,17.257-2.37.927Z" transform="translate(-737.288 -176.704)" fill="#ad2524"/>
    </g>
    <g id="docker" transform="translate(6969.924 10580.299) rotate(7)">
      <path id="docker-2" data-name="docker" d="M209.8,61.279c-.634-.419-5.9-4.52-17.259-4.52a50.343,50.343,0,0,0-8.854.838c-2.213-14.731-14.529-22.193-15.055-22.5l-3.053-1.8-1.9,2.835a34.765,34.765,0,0,0-5.363,12.519,29.2,29.2,0,0,0,3.471,23.255c-5.168,2.942-13.583,3.683-15.377,3.683H7.733A6.579,6.579,0,0,0,1.2,82.216a102.306,102.306,0,0,0,6.114,35.56c4.739,12.519,11.9,21.774,21.062,27.454,10.316,6.313,27.273,9.889,46.541,9.889A140.809,140.809,0,0,0,100.4,152.81a103.952,103.952,0,0,0,33.591-12.21,87.37,87.37,0,0,0,22.846-18.832c11.057-12.3,17.581-26.3,22.329-38.395h1.989c12,0,19.482-4.842,23.6-8.944a25.3,25.3,0,0,0,6.2-9.158l.848-2.523-2-1.461M20.692,71.684H39.219A1.735,1.735,0,0,0,40.9,70V53.388A1.735,1.735,0,0,0,39.219,51.7H20.7a1.657,1.657,0,0,0-1.687,1.685V70.008A1.719,1.719,0,0,0,20.7,71.694m25.586,0H64.815A1.735,1.735,0,0,0,66.5,70.008V53.388A1.735,1.735,0,0,0,64.815,51.7H46.288A1.657,1.657,0,0,0,44.6,53.388v16.62a1.719,1.719,0,0,0,1.687,1.685m26,0h18.43a1.682,1.682,0,0,0,1.784-1.685V53.388A1.691,1.691,0,0,0,90.722,51.7H72.284a1.642,1.642,0,0,0-1.58,1.685V70.008a1.576,1.576,0,0,0,1.58,1.685m25.693,0H116.6a1.643,1.643,0,0,0,1.589-1.685V53.388a1.645,1.645,0,0,0-1.58-1.685H97.977a1.642,1.642,0,0,0-1.58,1.685v16.62a1.636,1.636,0,0,0,1.58,1.685m-51.7-23.567H64.8a1.929,1.929,0,0,0,1.687-1.89V29.714A1.657,1.657,0,0,0,64.8,28.038H46.278a1.593,1.593,0,0,0-1.687,1.676V46.237a1.921,1.921,0,0,0,1.687,1.89m26,0h18.43a1.857,1.857,0,0,0,1.784-1.89V29.714a1.626,1.626,0,0,0-1.784-1.676H72.284a1.568,1.568,0,0,0-1.58,1.676V46.237a1.767,1.767,0,0,0,1.58,1.89m25.693,0H116.6a1.849,1.849,0,0,0,1.589-1.89V29.714a1.639,1.639,0,0,0-1.58-1.676H97.977a1.568,1.568,0,0,0-1.58,1.676V46.237a1.841,1.841,0,0,0,1.58,1.89m0-23.986H116.6a1.643,1.643,0,0,0,1.589-1.685V6.05a1.679,1.679,0,0,0-1.58-1.793H97.977A1.611,1.611,0,0,0,96.4,6.05V22.456a1.709,1.709,0,0,0,1.58,1.685m25.9,47.553H142.4a1.657,1.657,0,0,0,1.687-1.685V53.388A1.735,1.735,0,0,0,142.41,51.7H123.865a1.648,1.648,0,0,0-1.58,1.685v16.62a1.648,1.648,0,0,0,1.58,1.685" transform="translate(-1.2 -4.257)" fill="#0087c9"/>
    </g>
    <g id="node" transform="translate(7819.495 10590.092)">
      <path id="Path_9" data-name="Path 9" d="M81.342,25.521,42.525,47.906a4.677,4.677,0,0,0-2.345,4.055V96.793a4.693,4.693,0,0,0,2.341,4.063l38.824,22.42a4.7,4.7,0,0,0,4.69,0l38.813-22.416a4.693,4.693,0,0,0,2.342-4.06V51.98a4.677,4.677,0,0,0-2.346-4.055L86.036,25.541a4.688,4.688,0,0,0-4.69,0Z" transform="translate(-40.18 -24.912)" fill="#388e3c"/>
      <path id="Path_10" data-name="Path 10" d="M42.98,99.572a4.537,4.537,0,0,0,1.325,1.214l31.968,19.206,5.323,3.2a4.374,4.374,0,0,0,2.593.613,4.5,4.5,0,0,0,.885-.17L124.38,48.776a4.646,4.646,0,0,0-1.025-.866L98.931,33.251l-12.9-7.719a4.217,4.217,0,0,0-1.166-.482Z" transform="translate(-40.18 -24.912)" fill="#4caf50"/>
      <path id="Path_11" data-name="Path 11" d="M124.38,99.572a4.537,4.537,0,0,1-1.325,1.214L91.087,119.992l-5.323,3.2a4.374,4.374,0,0,1-2.593.613,4.5,4.5,0,0,1-.885-.17L42.98,48.768a4.645,4.645,0,0,1,1.025-.866L68.429,33.251l12.9-7.719A4.217,4.217,0,0,1,82.5,25.05Z" transform="translate(-40.18 -24.912)" fill="#66bb6a"/>
    </g>
    <g id="flutter" transform="translate(6919.027 10433.324) rotate(-15.009)">
      <path id="Path_77" data-name="Path 77" d="M73.446,0,0,73.446,22.732,96.179,118.911,0Z" fill="#47c5fb"/>
      <path id="Path_78" data-name="Path 78" d="M111.475,145.4,72.15,184.725l22.816,23.156,22.69-22.69,39.8-39.791Z" transform="translate(-38.541 -77.669)" fill="#47c5fb"/>
      <path id="Path_79" data-name="Path 79" d="M121.13,253.51l17.27,17.273h45.213l-39.8-39.963Z" transform="translate(-64.705 -123.299)" fill="#00569e"/>
      <path id="Path_80" data-name="Path 80" d="M71.6,204.292,94.332,181.56l23.03,22.946L94.672,227.2Z" transform="translate(-38.247 -96.985)" fill="#00b5f8"/>
      <path id="Path_81" data-name="Path 81" d="M121.13,255.711l18.894-6.27,1.877-14.5Z" transform="translate(-64.705 -125.499)" fill="url(#linear-gradient)"/>
    </g>
    <g id="Group_23" data-name="Group 23" transform="translate(6965.65 10783.825) rotate(-0.974)">
      <circle id="Ellipse_2" data-name="Ellipse 2" cx="64.139" cy="64.139" r="64.139" transform="translate(5 5)" fill="#f47421"/>
      <circle id="Ellipse_3" data-name="Ellipse 3" cx="31.107" cy="31.107" r="31.107" transform="translate(38.032 38.032)" fill="none" stroke="#fff" stroke-width="8.55"/>
      <g id="friend" transform="translate(13.498 57.113)">
        <circle id="Ellipse_4" data-name="Ellipse 4" cx="12.026" cy="12.026" r="12.026" transform="translate(0 0)" fill="#f47421"/>
        <path id="Path_74" data-name="Path 74" d="M67,50H81.253" transform="translate(12.871 -37.974)" stroke="#f47421" stroke-width="3.238"/>
        <circle id="Ellipse_5" data-name="Ellipse 5" cx="8.563" cy="8.563" r="8.563" transform="translate(3.464 3.464)" fill="#fff"/>
      </g>
      <g id="Group_21" data-name="Group 21" transform="translate(107.374 26.966) rotate(120)">
        <circle id="Ellipse_6" data-name="Ellipse 6" cx="12.026" cy="12.026" r="12.026" transform="translate(0 0)" fill="#f47421"/>
        <path id="Path_75" data-name="Path 75" d="M0,0H14.253" transform="translate(79.871 12.026)" stroke="#f47421" stroke-width="3.238"/>
        <circle id="Ellipse_7" data-name="Ellipse 7" cx="8.563" cy="8.563" r="8.563" transform="translate(3.464 3.464)" fill="#fff"/>
      </g>
      <g id="Group_22" data-name="Group 22" transform="translate(86.545 123.339) rotate(-120)">
        <circle id="Ellipse_8" data-name="Ellipse 8" cx="12.026" cy="12.026" r="12.026" transform="translate(0 0)" fill="#f47421"/>
        <path id="Path_76" data-name="Path 76" d="M0,0H14.253" transform="translate(79.871 12.026)" stroke="#f47421" stroke-width="3.238"/>
        <circle id="Ellipse_9" data-name="Ellipse 9" cx="8.563" cy="8.563" r="8.563" transform="translate(3.464 3.464)" fill="#fff"/>
      </g>
    </g>
    <g id="go-language-official" transform="translate(6479.845 10572.358)">
      <g id="Group_31" data-name="Group 31">
        <path id="Path_132" data-name="Path 132" d="M19.319,28.959c-.5,0-.623-.25-.374-.623l2.617-3.365a1.785,1.785,0,0,1,1.37-.623h44.5c.5,0,.623.374.374.748l-2.12,3.24a1.9,1.9,0,0,1-1.246.748l-45.12-.125ZM.5,40.426c-.5,0-.623-.25-.374-.623l2.617-3.365a1.785,1.785,0,0,1,1.37-.623H60.949a.572.572,0,0,1,.623.748l-1,3a1.089,1.089,0,0,1-1.122.748ZM30.662,51.893c-.5,0-.623-.374-.374-.748l1.745-3.116a1.654,1.654,0,0,1,1.246-.748H58.207c.5,0,.748.374.748.872l-.25,3a.936.936,0,0,1-.872.872L30.661,51.9Zm129.38-25.178L139.1,32.2c-1.87.5-1.994.623-3.615-1.246a16.556,16.556,0,0,0-5.858-4.736c-7.852-3.864-15.456-2.742-22.56,1.87A26.508,26.508,0,0,0,94.352,51.769c.125,9.97,6.98,18.2,16.827,19.57,8.476,1.122,15.58-1.87,21.2-8.226,1.122-1.37,2.12-2.867,3.365-4.612H111.679c-2.617,0-3.24-1.62-2.368-3.74,1.62-3.864,4.612-10.345,6.357-13.586a3.365,3.365,0,0,1,3.116-1.994h45.37c-.25,3.365-.25,6.73-.748,10.1a53.152,53.152,0,0,1-10.22,24.43c-8.974,11.84-20.7,19.195-35.523,21.2-12.215,1.62-23.557-.748-33.53-8.226A39.144,39.144,0,0,1,68.3,59c-1.62-13.586,2.368-25.8,10.6-36.52A55.312,55.312,0,0,1,113.8.916c11.716-2.12,22.934-.748,33.03,6.107A39.082,39.082,0,0,1,161.289,24.6c.748,1.122.25,1.745-1.246,2.12Z" fill="#00acd7"/>
        <path id="Path_133" data-name="Path 133" d="M201.3,95.642c-11.342-.25-21.688-3.5-30.413-10.97a39.085,39.085,0,0,1-13.46-24.056c-2.244-14.085,1.62-26.55,10.1-37.642,9.1-11.966,20.067-18.2,34.9-20.815,12.714-2.244,24.68-1,35.523,6.357,9.847,6.73,15.954,15.83,17.575,27.795,2.12,16.827-2.742,30.537-14.334,42.254a57.117,57.117,0,0,1-29.914,15.954c-3.365.623-6.73.748-9.97,1.122Zm29.665-50.355a36.008,36.008,0,0,0-.374-4.113C228.343,28.834,217,21.854,205.16,24.6c-11.592,2.617-19.07,9.97-21.812,21.688a20.526,20.526,0,0,0,11.467,23.557,22.826,22.826,0,0,0,20.317-.748c9.847-5.1,15.206-13.087,15.83-23.807Z" fill="#00acd7"/>
      </g>
    </g>
    <g id="icons8-nginx" transform="translate(6788.609 10774.927)">
      <path id="Path_134" data-name="Path 134" d="M147.951,125.329V43.41L76.476,2.447,5,43.41v81.919l71.476,40.959Z" fill="#43a047"/>
      <path id="Path_135" data-name="Path 135" d="M86.357,13a9.4,9.4,0,0,0-9.4,9.4V64.825L35.511,18.467l-.493-.572C30.339,12.768,24.989,13,22.4,13A9.4,9.4,0,0,0,13,22.4V86.358a9.4,9.4,0,1,0,18.809,0V43.627l42.427,47.5.414.534c4.635,4.6,10.936,4.1,11.707,4.1a9.4,9.4,0,0,0,9.4-9.4V22.406A9.4,9.4,0,0,0,86.357,13Z" transform="translate(22.095 29.145)" fill="#fff"/>
    </g>
    <g id="Group_26" data-name="Group 26" transform="translate(6431 10413)">
      <rect id="Rectangle_2" data-name="Rectangle 2" width="115" height="115" fill="#512bd4"/>
      <path id="Path_85" data-name="Path 85" d="M72.588,274.636a2.891,2.891,0,0,1-2.07-.811,2.742,2.742,0,0,1,0-3.974,3.015,3.015,0,0,1,4.16,0,2.7,2.7,0,0,1,0,3.974A2.916,2.916,0,0,1,72.588,274.636Z" transform="translate(-52.129 -201.297)" fill="#fff"/>
      <path id="Path_86" data-name="Path 86" d="M136.824,200.835h-5.276l-13.9-21.929a9.811,9.811,0,0,1-.873-1.727h-.122a31.48,31.48,0,0,1,.162,4.1v19.557h-4.667V171h5.621L131.2,192.408q.852,1.332,1.1,1.831h.081a27.188,27.188,0,0,1-.2-4.015V171h4.647Z" transform="translate(-83.917 -127.953)" fill="#fff"/>
      <path id="Path_87" data-name="Path 87" d="M251.9,200.835H235.561V171h15.685v4.2H240.391v8.447h10v4.182h-10v8.821H251.9Z" transform="translate(-176.262 -127.953)" fill="#fff"/>
      <path id="Path_88" data-name="Path 88" d="M328.673,175.2h-8.36v25.632h-4.83V175.2h-8.34V171h21.53Z" transform="translate(-229.824 -127.953)" fill="#fff"/>
    </g>
    <g id="icons8-kubernetes" transform="translate(6602.971 10443.025) rotate(-11)">
      <path id="Path_68" data-name="Path 68" d="M31.626,26.016a1.628,1.628,0,0,1,.29,1.236l-.689,3.016a1.487,1.487,0,0,1-.8,1.054L27.638,32.63a1.39,1.39,0,0,1-1.306,0l-2.791-1.308a1.481,1.481,0,0,1-.8-1.054l-.689-3.016a1.638,1.638,0,0,1,.29-1.236L24.3,23.582A1.4,1.4,0,0,1,25.461,23h3.046a1.407,1.407,0,0,1,1.161.582Z" transform="translate(28.436 29.938)" fill="#0277bd"/>
      <path id="Path_69" data-name="Path 69" d="M58.656,33.787l.12.936c.335,2.589.574,5.206.814,7.8.1,1.031.192,2.04.262,3.071a1,1,0,0,0,1.581.744c.814-.6,1.653-1.2,2.514-1.775,2.155-1.463,4.285-2.926,6.487-4.342l.814-.5a23.535,23.535,0,0,0-12.592-5.934Zm0,0,.12.936c.335,2.589.574,5.206.814,7.8.1,1.031.192,2.04.262,3.071a1,1,0,0,0,1.581.744c.814-.6,1.653-1.2,2.514-1.775,2.155-1.463,4.285-2.926,6.487-4.342l.814-.5a23.535,23.535,0,0,0-12.592-5.934Zm0,0,.12.936c.335,2.589.574,5.206.814,7.8.1,1.031.192,2.04.262,3.071a1,1,0,0,0,1.581.744c.814-.6,1.653-1.2,2.514-1.775,2.155-1.463,4.285-2.926,6.487-4.342l.814-.5a23.535,23.535,0,0,0-12.592-5.934Zm0,0,.12.936c.335,2.589.574,5.206.814,7.8.1,1.031.192,2.04.262,3.071a1,1,0,0,0,1.581.744c.814-.6,1.653-1.2,2.514-1.775,2.155-1.463,4.285-2.926,6.487-4.342l.814-.5a23.535,23.535,0,0,0-12.592-5.934Zm0,0,.12.936c.335,2.589.574,5.206.814,7.8.1,1.031.192,2.04.262,3.071a1,1,0,0,0,1.581.744c.814-.6,1.653-1.2,2.514-1.775,2.155-1.463,4.285-2.926,6.487-4.342l.814-.5a23.535,23.535,0,0,0-12.592-5.934Zm17,11.248-.647.7c-1.8,1.92-3.638,3.765-5.483,5.613-1.174,1.2-2.442,2.35-3.663,3.526,1.628.407,3.256.839,4.884,1.318,2.514.719,5,1.416,7.493,2.23l.886.287c.025-.385.025-.792.025-1.2a23.718,23.718,0,0,0-3.5-12.474Zm0,0-.647.7c-1.8,1.92-3.638,3.765-5.483,5.613-1.174,1.2-2.442,2.35-3.663,3.526,1.628.407,3.256.839,4.884,1.318,2.514.719,5,1.416,7.493,2.23l.886.287c.025-.385.025-.792.025-1.2a23.718,23.718,0,0,0-3.5-12.474Zm-17-11.248.12.936c.335,2.589.574,5.206.814,7.8.1,1.031.192,2.04.262,3.071a1,1,0,0,0,1.581.744c.814-.6,1.653-1.2,2.514-1.775,2.155-1.463,4.285-2.926,6.487-4.342l.814-.5a23.535,23.535,0,0,0-12.592-5.934Zm0,0,.12.936c.335,2.589.574,5.206.814,7.8.1,1.031.192,2.04.262,3.071a1,1,0,0,0,1.581.744c.814-.6,1.653-1.2,2.514-1.775,2.155-1.463,4.285-2.926,6.487-4.342l.814-.5a23.535,23.535,0,0,0-12.592-5.934ZM76.921,65.472c-2.609-.167-5.2-.407-7.805-.647-1.126-.1-2.227-.215-3.351-.337a.976.976,0,0,0-1.029,1.318c.407,1.079.789,2.16,1.174,3.263.839,2.447,1.7,4.916,2.489,7.411l.262.864a24,24,0,0,0,9.1-11.825ZM75.652,45.035l-.647.7c-1.8,1.92-3.638,3.765-5.483,5.613-1.174,1.2-2.442,2.35-3.663,3.526,1.628.407,3.256.839,4.884,1.318,2.514.719,5,1.416,7.493,2.23l.886.287c.025-.385.025-.792.025-1.2a23.718,23.718,0,0,0-3.495-12.474Zm0,0-.647.7c-1.8,1.92-3.638,3.765-5.483,5.613-1.174,1.2-2.442,2.35-3.663,3.526,1.628.407,3.256.839,4.884,1.318,2.514.719,5,1.416,7.493,2.23l.886.287c.025-.385.025-.792.025-1.2a23.718,23.718,0,0,0-3.495-12.474ZM76.92,65.472c-2.609-.167-5.2-.407-7.805-.647-1.126-.1-2.227-.215-3.351-.337a.976.976,0,0,0-1.029,1.318c.407,1.079.789,2.16,1.174,3.263.839,2.447,1.7,4.916,2.489,7.411l.262.864a24,24,0,0,0,9.1-11.825ZM58.656,33.787l.12.936c.335,2.589.574,5.206.814,7.8.1,1.031.192,2.04.262,3.071a1,1,0,0,0,1.581.744c.814-.6,1.653-1.2,2.514-1.775,2.155-1.463,4.285-2.926,6.487-4.342l.814-.5a23.535,23.535,0,0,0-12.592-5.934Zm0,0,.12.936c.335,2.589.574,5.206.814,7.8.1,1.031.192,2.04.262,3.071a1,1,0,0,0,1.581.744c.814-.6,1.653-1.2,2.514-1.775,2.155-1.463,4.285-2.926,6.487-4.342l.814-.5a23.535,23.535,0,0,0-12.592-5.934ZM76.921,65.472c-2.609-.167-5.2-.407-7.805-.647-1.126-.1-2.227-.215-3.351-.337a.976.976,0,0,0-1.029,1.318c.407,1.079.789,2.16,1.174,3.263.839,2.447,1.7,4.916,2.489,7.411l.262.864a24,24,0,0,0,9.1-11.825ZM75.652,45.035l-.647.7c-1.8,1.92-3.638,3.765-5.483,5.613-1.174,1.2-2.442,2.35-3.663,3.526,1.628.407,3.256.839,4.884,1.318,2.514.719,5,1.416,7.493,2.23l.886.287c.025-.385.025-.792.025-1.2a23.718,23.718,0,0,0-3.495-12.474Zm0,0-.647.7c-1.8,1.92-3.638,3.765-5.483,5.613-1.174,1.2-2.442,2.35-3.663,3.526,1.628.407,3.256.839,4.884,1.318,2.514.719,5,1.416,7.493,2.23l.886.287c.025-.385.025-.792.025-1.2a23.718,23.718,0,0,0-3.495-12.474ZM76.92,65.472c-2.609-.167-5.2-.407-7.805-.647-1.126-.1-2.227-.215-3.351-.337a.976.976,0,0,0-1.029,1.318c.407,1.079.789,2.16,1.174,3.263.839,2.447,1.7,4.916,2.489,7.411l.262.864a24,24,0,0,0,9.1-11.825ZM58.656,33.787l.12.936c.335,2.589.574,5.206.814,7.8.1,1.031.192,2.04.262,3.071a1,1,0,0,0,1.581.744c.814-.6,1.653-1.2,2.514-1.775,2.155-1.463,4.285-2.926,6.487-4.342l.814-.5a23.535,23.535,0,0,0-12.592-5.934Zm3.231,45.668c-1.388-2.207-2.682-4.484-3.975-6.739-.574-.984-1.126-1.968-1.653-2.974a.992.992,0,0,0-1.748,0q-.828,1.547-1.723,3.021c-1.316,2.255-2.634,4.509-4.022,6.717l-.6.959A23.56,23.56,0,0,0,55.2,81.5a23.263,23.263,0,0,0,7.231-1.129ZM58.656,33.787l.12.936c.335,2.589.574,5.206.814,7.8.1,1.031.192,2.04.262,3.071a1,1,0,0,0,1.581.744c.814-.6,1.653-1.2,2.514-1.775,2.155-1.463,4.285-2.926,6.487-4.342l.814-.5a23.535,23.535,0,0,0-12.592-5.934ZM76.921,65.472c-2.609-.167-5.2-.407-7.805-.647-1.126-.1-2.227-.215-3.351-.337a.976.976,0,0,0-1.029,1.318c.407,1.079.789,2.16,1.174,3.263.839,2.447,1.7,4.916,2.489,7.411l.262.864a24,24,0,0,0,9.1-11.825ZM75.652,45.035l-.647.7c-1.8,1.92-3.638,3.765-5.483,5.613-1.174,1.2-2.442,2.35-3.663,3.526,1.628.407,3.256.839,4.884,1.318,2.514.719,5,1.416,7.493,2.23l.886.287c.025-.385.025-.792.025-1.2a23.718,23.718,0,0,0-3.495-12.474Zm0,0-.647.7c-1.8,1.92-3.638,3.765-5.483,5.613-1.174,1.2-2.442,2.35-3.663,3.526,1.628.407,3.256.839,4.884,1.318,2.514.719,5,1.416,7.493,2.23l.886.287c.025-.385.025-.792.025-1.2a23.718,23.718,0,0,0-3.495-12.474ZM76.92,65.472c-2.609-.167-5.2-.407-7.805-.647-1.126-.1-2.227-.215-3.351-.337a.976.976,0,0,0-1.029,1.318c.407,1.079.789,2.16,1.174,3.263.839,2.447,1.7,4.916,2.489,7.411l.262.864a24,24,0,0,0,9.1-11.825ZM58.656,33.787l.12.936c.335,2.589.574,5.206.814,7.8.1,1.031.192,2.04.262,3.071a1,1,0,0,0,1.581.744c.814-.6,1.653-1.2,2.514-1.775,2.155-1.463,4.285-2.926,6.487-4.342l.814-.5a23.535,23.535,0,0,0-12.592-5.934Zm3.231,45.668c-1.388-2.207-2.682-4.484-3.975-6.739-.574-.984-1.126-1.968-1.653-2.974a.992.992,0,0,0-1.748,0q-.828,1.547-1.723,3.021c-1.316,2.255-2.634,4.509-4.022,6.717l-.6.959A23.56,23.56,0,0,0,55.2,81.5a23.263,23.263,0,0,0,7.231-1.129Zm-16.806-15.3c-1.126.145-2.227.312-3.351.432-2.609.312-5.171.624-7.78.864l-1.293.12a24.107,24.107,0,0,0,9.288,11.9l.335-1.009c.814-2.494,1.675-4.941,2.562-7.411.407-1.2.839-2.375,1.293-3.573a.97.97,0,0,0-1.054-1.325Zm16.806,15.3c-1.388-2.207-2.682-4.484-3.975-6.739-.574-.984-1.126-1.968-1.653-2.974a.992.992,0,0,0-1.748,0q-.828,1.547-1.723,3.021c-1.316,2.255-2.634,4.509-4.022,6.717l-.6.959A23.56,23.56,0,0,0,55.2,81.5a23.263,23.263,0,0,0,7.231-1.129ZM58.656,33.787l.12.936c.335,2.589.574,5.206.814,7.8.1,1.031.192,2.04.262,3.071a1,1,0,0,0,1.581.744c.814-.6,1.653-1.2,2.514-1.775,2.155-1.463,4.285-2.926,6.487-4.342l.814-.5a23.535,23.535,0,0,0-12.592-5.934ZM76.921,65.472c-2.609-.167-5.2-.407-7.805-.647-1.126-.1-2.227-.215-3.351-.337a.976.976,0,0,0-1.029,1.318c.407,1.079.789,2.16,1.174,3.263.839,2.447,1.7,4.916,2.489,7.411l.262.864a24,24,0,0,0,9.1-11.825ZM75.652,45.035l-.647.7c-1.8,1.92-3.638,3.765-5.483,5.613-1.174,1.2-2.442,2.35-3.663,3.526,1.628.407,3.256.839,4.884,1.318,2.514.719,5,1.416,7.493,2.23l.886.287c.025-.385.025-.792.025-1.2a23.718,23.718,0,0,0-3.495-12.474Zm0,0-.647.7c-1.8,1.92-3.638,3.765-5.483,5.613-1.174,1.2-2.442,2.35-3.663,3.526,1.628.407,3.256.839,4.884,1.318,2.514.719,5,1.416,7.493,2.23l.886.287c.025-.385.025-.792.025-1.2a23.718,23.718,0,0,0-3.495-12.474ZM76.92,65.472c-2.609-.167-5.2-.407-7.805-.647-1.126-.1-2.227-.215-3.351-.337a.976.976,0,0,0-1.029,1.318c.407,1.079.789,2.16,1.174,3.263.839,2.447,1.7,4.916,2.489,7.411l.262.864a24,24,0,0,0,9.1-11.825ZM58.656,33.787l.12.936c.335,2.589.574,5.206.814,7.8.1,1.031.192,2.04.262,3.071a1,1,0,0,0,1.581.744c.814-.6,1.653-1.2,2.514-1.775,2.155-1.463,4.285-2.926,6.487-4.342l.814-.5a23.535,23.535,0,0,0-12.592-5.934Zm3.231,45.668c-1.388-2.207-2.682-4.484-3.975-6.739-.574-.984-1.126-1.968-1.653-2.974a.992.992,0,0,0-1.748,0q-.828,1.547-1.723,3.021c-1.316,2.255-2.634,4.509-4.022,6.717l-.6.959A23.56,23.56,0,0,0,55.2,81.5a23.263,23.263,0,0,0,7.231-1.129Zm-16.806-15.3c-1.126.145-2.227.312-3.351.432-2.609.312-5.171.624-7.78.864l-1.293.12a24.107,24.107,0,0,0,9.288,11.9l.335-1.009c.814-2.494,1.675-4.941,2.562-7.411.407-1.2.839-2.375,1.293-3.573a.97.97,0,0,0-1.054-1.325Zm0,0c-1.126.145-2.227.312-3.351.432-2.609.312-5.171.624-7.78.864l-1.293.12a24.107,24.107,0,0,0,9.288,11.9l.335-1.009c.814-2.494,1.675-4.941,2.562-7.411.407-1.2.839-2.375,1.293-3.573a.97.97,0,0,0-1.054-1.325Zm16.806,15.3c-1.388-2.207-2.682-4.484-3.975-6.739-.574-.984-1.126-1.968-1.653-2.974a.992.992,0,0,0-1.748,0q-.828,1.547-1.723,3.021c-1.316,2.255-2.634,4.509-4.022,6.717l-.6.959A23.56,23.56,0,0,0,55.2,81.5a23.263,23.263,0,0,0,7.231-1.129ZM58.656,33.787l.12.936c.335,2.589.574,5.206.814,7.8.1,1.031.192,2.04.262,3.071a1,1,0,0,0,1.581.744c.814-.6,1.653-1.2,2.514-1.775,2.155-1.463,4.285-2.926,6.487-4.342l.814-.5a23.535,23.535,0,0,0-12.592-5.934ZM76.921,65.472c-2.609-.167-5.2-.407-7.805-.647-1.126-.1-2.227-.215-3.351-.337a.976.976,0,0,0-1.029,1.318c.407,1.079.789,2.16,1.174,3.263.839,2.447,1.7,4.916,2.489,7.411l.262.864a24,24,0,0,0,9.1-11.825ZM75.652,45.035l-.647.7c-1.8,1.92-3.638,3.765-5.483,5.613-1.174,1.2-2.442,2.35-3.663,3.526,1.628.407,3.256.839,4.884,1.318,2.514.719,5,1.416,7.493,2.23l.886.287c.025-.385.025-.792.025-1.2a23.718,23.718,0,0,0-3.495-12.474Zm0,0-.647.7c-1.8,1.92-3.638,3.765-5.483,5.613-1.174,1.2-2.442,2.35-3.663,3.526,1.628.407,3.256.839,4.884,1.318,2.514.719,5,1.416,7.493,2.23l.886.287c.025-.385.025-.792.025-1.2a23.718,23.718,0,0,0-3.495-12.474ZM76.92,65.472c-2.609-.167-5.2-.407-7.805-.647-1.126-.1-2.227-.215-3.351-.337a.976.976,0,0,0-1.029,1.318c.407,1.079.789,2.16,1.174,3.263.839,2.447,1.7,4.916,2.489,7.411l.262.864a24,24,0,0,0,9.1-11.825ZM58.656,33.787l.12.936c.335,2.589.574,5.206.814,7.8.1,1.031.192,2.04.262,3.071a1,1,0,0,0,1.581.744c.814-.6,1.653-1.2,2.514-1.775,2.155-1.463,4.285-2.926,6.487-4.342l.814-.5a23.535,23.535,0,0,0-12.592-5.934Zm3.231,45.668c-1.388-2.207-2.682-4.484-3.975-6.739-.574-.984-1.126-1.968-1.653-2.974a.992.992,0,0,0-1.748,0q-.828,1.547-1.723,3.021c-1.316,2.255-2.634,4.509-4.022,6.717l-.6.959A23.56,23.56,0,0,0,55.2,81.5a23.263,23.263,0,0,0,7.231-1.129Zm-16.806-15.3c-1.126.145-2.227.312-3.351.432-2.609.312-5.171.624-7.78.864l-1.293.12a24.107,24.107,0,0,0,9.288,11.9l.335-1.009c.814-2.494,1.675-4.941,2.562-7.411.407-1.2.839-2.375,1.293-3.573a.97.97,0,0,0-1.054-1.325ZM43.74,53.215c-.814-.744-1.6-1.488-2.394-2.28-1.868-1.848-3.71-3.67-5.531-5.565l-.767-.792a23.79,23.79,0,0,0-3.783,12.929c0,.457.025.886.025,1.318l1.126-.385c2.467-.886,4.956-1.655,7.421-2.469,1.174-.385,2.347-.719,3.518-1.079a.983.983,0,0,0,.385-1.677Zm1.341,10.939c-1.126.145-2.227.312-3.351.432-2.609.312-5.171.624-7.78.864l-1.293.12a24.107,24.107,0,0,0,9.288,11.9l.335-1.009c.814-2.494,1.675-4.941,2.562-7.411.407-1.2.839-2.375,1.293-3.573a.97.97,0,0,0-1.054-1.324Zm16.806,15.3c-1.388-2.207-2.682-4.484-3.975-6.739-.574-.984-1.126-1.968-1.653-2.974a.992.992,0,0,0-1.748,0q-.828,1.547-1.723,3.021c-1.316,2.255-2.634,4.509-4.022,6.717l-.6.959a23.56,23.56,0,0,0,7.039,1.056,23.263,23.263,0,0,0,7.231-1.129ZM58.656,33.787l.12.936c.335,2.589.574,5.206.814,7.8.1,1.031.192,2.04.262,3.071a1,1,0,0,0,1.581.744c.814-.6,1.653-1.2,2.514-1.775,2.155-1.463,4.285-2.926,6.487-4.342l.814-.5a23.535,23.535,0,0,0-12.592-5.934ZM76.921,65.472c-2.609-.167-5.2-.407-7.805-.647-1.126-.1-2.227-.215-3.351-.337a.976.976,0,0,0-1.029,1.318c.407,1.079.789,2.16,1.174,3.263.839,2.447,1.7,4.916,2.489,7.411l.262.864a24,24,0,0,0,9.1-11.825ZM75.652,45.035l-.647.7c-1.8,1.92-3.638,3.765-5.483,5.613-1.174,1.2-2.442,2.35-3.663,3.526,1.628.407,3.256.839,4.884,1.318,2.514.719,5,1.416,7.493,2.23l.886.287c.025-.385.025-.792.025-1.2a23.718,23.718,0,0,0-3.495-12.474Zm0,0-.647.7c-1.8,1.92-3.638,3.765-5.483,5.613-1.174,1.2-2.442,2.35-3.663,3.526,1.628.407,3.256.839,4.884,1.318,2.514.719,5,1.416,7.493,2.23l.886.287c.025-.385.025-.792.025-1.2a23.718,23.718,0,0,0-3.495-12.474Zm-6.537,19.79c-1.126-.1-2.227-.215-3.351-.337a.976.976,0,0,0-1.029,1.318c.407,1.079.789,2.16,1.174,3.263.839,2.447,1.7,4.916,2.489,7.411l.262.864a24,24,0,0,0,9.1-11.825l-.839-.047c-2.609-.172-5.194-.407-7.805-.647Zm2.132-25.113a23.535,23.535,0,0,0-12.592-5.925l.12.936c.335,2.589.574,5.206.814,7.8.1,1.031.192,2.04.262,3.071a1,1,0,0,0,1.581.744c.814-.6,1.653-1.2,2.514-1.775,2.155-1.463,4.285-2.926,6.487-4.342Zm-13.336,33c-.574-.984-1.126-1.968-1.653-2.974a.992.992,0,0,0-1.748,0q-.828,1.547-1.723,3.021c-1.316,2.255-2.634,4.509-4.022,6.717l-.6.959A23.56,23.56,0,0,0,55.2,81.491a23.263,23.263,0,0,0,7.231-1.129l-.552-.911c-1.383-2.2-2.677-4.481-3.971-6.736Zm-12.83-8.559c-1.126.145-2.227.312-3.351.432-2.609.312-5.171.624-7.78.864l-1.293.12a24.107,24.107,0,0,0,9.288,11.9l.335-1.009c.814-2.494,1.675-4.941,2.562-7.411.407-1.2.839-2.375,1.293-3.573a.97.97,0,0,0-1.054-1.323Zm-1.723-9.261a.983.983,0,0,0,.382-1.678c-.814-.744-1.6-1.488-2.394-2.28-1.868-1.848-3.71-3.67-5.531-5.565l-.767-.792a23.79,23.79,0,0,0-3.783,12.929c0,.457.025.886.025,1.318l1.126-.385c2.467-.886,4.956-1.655,7.421-2.469,1.174-.381,2.348-.715,3.521-1.077ZM107.23,65.856,98.084,25.607a6.063,6.063,0,0,0-3.256-4.1L57.817,3.612a5.865,5.865,0,0,0-5.218,0L15.588,21.5a6.057,6.057,0,0,0-3.256,4.1L3.186,65.856a6.042,6.042,0,0,0,1.149,5.086L29.95,103.227a6.061,6.061,0,0,0,4.717,2.28h41.08a6.053,6.053,0,0,0,4.717-2.28l25.615-32.284a6.036,6.036,0,0,0,1.151-5.087ZM94.446,67.534a2.655,2.655,0,0,1-2.01-.36,12.556,12.556,0,0,0-3.663-1.583,17.617,17.617,0,0,0-1.89-.407,2.961,2.961,0,0,0-2.06.335,3.239,3.239,0,0,1-2.035.287h-.072A28.929,28.929,0,0,1,70.147,82.093v.025a3.55,3.55,0,0,1,.215,2.04,2.9,2.9,0,0,0,.145,2.087c.262.577.552,1.176.861,1.728a12.3,12.3,0,0,0,2.417,3.191,2.612,2.612,0,1,1-3.521,3.86,2.518,2.518,0,0,1-.839-1.87,13.042,13.042,0,0,0-.839-3.91,18.841,18.841,0,0,0-.742-1.8,3.02,3.02,0,0,0-1.486-1.463,3.445,3.445,0,0,1-1.341-1.416A28.317,28.317,0,0,1,55.2,86.3a28.7,28.7,0,0,1-9.676-1.679,3.074,3.074,0,0,1-1.29,1.369,2.937,2.937,0,0,0-1.483,1.463,16.548,16.548,0,0,0-.767,1.775,12.389,12.389,0,0,0-.839,3.91,2.611,2.611,0,1,1-4.357-2.015,13.629,13.629,0,0,0,2.442-3.166c.312-.577.6-1.151.861-1.75a3.02,3.02,0,0,0,.167-2.087,3.266,3.266,0,0,1,.192-1.9A28.935,28.935,0,0,1,27.743,66.006a2.924,2.924,0,0,1-1.7-.265,2.921,2.921,0,0,0-2.06-.287,16.619,16.619,0,0,0-1.89.479,12.985,12.985,0,0,0-3.615,1.678,2.6,2.6,0,1,1-3.016-4.247,2.661,2.661,0,0,1,2.01-.457,11.685,11.685,0,0,0,3.975.025,12.951,12.951,0,0,0,1.915-.36,2.811,2.811,0,0,0,1.748-1.126,3.311,3.311,0,0,1,1.508-.936c-.1-.984-.145-1.99-.145-3a28.616,28.616,0,0,1,5.2-16.5,3.118,3.118,0,0,1-1.006-1.63,3,3,0,0,0-1.054-1.8A17.141,17.141,0,0,0,28.08,36.4a13.834,13.834,0,0,0-3.568-1.8,2.591,2.591,0,0,1-1.8-3.213,2.627,2.627,0,0,1,3.231-1.8,2.681,2.681,0,0,1,1.581,1.3,12.329,12.329,0,0,0,2.467,3.141,14.586,14.586,0,0,0,1.46,1.268,2.86,2.86,0,0,0,1.963.672,3.452,3.452,0,0,1,1.915.744l.025.025a28.252,28.252,0,0,1,17.021-7.868A3.459,3.459,0,0,1,53,26.935a2.879,2.879,0,0,0,.742-1.943,18,18,0,0,0-.047-1.968,13.393,13.393,0,0,0-.9-3.884,2.607,2.607,0,1,1,4.789-2.062,2.682,2.682,0,0,1,0,2.062,13.41,13.41,0,0,0-.886,3.885,17.98,17.98,0,0,0-.047,1.968,2.879,2.879,0,0,0,.742,1.943,3.44,3.44,0,0,1,.622,1.943,28.342,28.342,0,0,1,17.38,8.2,3.45,3.45,0,0,1,1.915-.767,2.86,2.86,0,0,0,1.963-.672c.5-.407.981-.839,1.461-1.3A12.869,12.869,0,0,0,83.183,31.2,2.6,2.6,0,1,1,87.8,33.582,2.519,2.519,0,0,1,86.224,34.9a12.659,12.659,0,0,0-3.543,1.8,18.97,18.97,0,0,0-1.533,1.2,3,3,0,0,0-1.054,1.8,3.412,3.412,0,0,1-1.076,1.75,28.514,28.514,0,0,1,4.909,16.07c0,.911-.047,1.823-.12,2.712h.025a3.34,3.34,0,0,1,1.8,1.006,2.914,2.914,0,0,0,1.768,1.05,17.572,17.572,0,0,0,1.915.312,12.508,12.508,0,0,0,4-.145,2.6,2.6,0,1,1,1.134,5.079ZM75,45.734c-1.8,1.92-3.638,3.765-5.483,5.613-1.174,1.2-2.442,2.35-3.663,3.526,1.628.407,3.256.839,4.884,1.318,2.514.719,5,1.416,7.493,2.23l.886.287c.025-.385.025-.792.025-1.2a23.7,23.7,0,0,0-3.5-12.472Zm-5.89,19.093c-1.126-.1-2.227-.215-3.351-.337a.976.976,0,0,0-1.029,1.318c.407,1.079.789,2.16,1.174,3.263.839,2.447,1.7,4.916,2.489,7.411l.262.864a24,24,0,0,0,9.1-11.825l-.839-.047c-2.609-.174-5.194-.409-7.805-.649Zm2.132-25.113a23.535,23.535,0,0,0-12.592-5.925l.12.936c.335,2.589.574,5.206.814,7.8.1,1.031.192,2.04.262,3.071a1,1,0,0,0,1.581.744c.814-.6,1.653-1.2,2.514-1.775,2.155-1.463,4.285-2.926,6.487-4.342Zm-13.336,33c-.574-.984-1.126-1.968-1.653-2.974a.992.992,0,0,0-1.748,0q-.828,1.547-1.723,3.021c-1.316,2.255-2.634,4.509-4.022,6.717l-.6.959A23.56,23.56,0,0,0,55.2,81.493a23.263,23.263,0,0,0,7.231-1.129l-.552-.911c-1.383-2.2-2.677-4.483-3.971-6.738Zm-7.086-30.2c.24-2.592.479-5.206.814-7.8l.12-.936A23.423,23.423,0,0,0,39.6,39.352l.742.457c2.227,1.391,4.382,2.854,6.537,4.317,1.246.792,2.417,1.678,3.59,2.519.1-1.37.215-2.761.357-4.127ZM45.081,64.153c-1.126.145-2.227.312-3.351.432-2.609.312-5.171.624-7.78.864l-1.293.12a24.107,24.107,0,0,0,9.288,11.9l.335-1.009c.814-2.494,1.675-4.941,2.562-7.411.407-1.2.839-2.375,1.293-3.573a.97.97,0,0,0-1.054-1.323Zm-1.723-9.261a.983.983,0,0,0,.382-1.678c-.814-.744-1.6-1.488-2.394-2.28-1.868-1.848-3.71-3.67-5.531-5.565l-.767-.792a23.79,23.79,0,0,0-3.783,12.929c0,.457.025.886.025,1.318l1.126-.385c2.467-.886,4.956-1.655,7.421-2.469,1.174-.381,2.348-.715,3.521-1.077Zm.382-1.678c-.814-.744-1.6-1.488-2.394-2.28-1.868-1.848-3.71-3.67-5.531-5.565l-.767-.792a23.79,23.79,0,0,0-3.783,12.929c0,.457.025.886.025,1.318l1.126-.385c2.467-.886,4.956-1.655,7.421-2.469,1.174-.385,2.347-.719,3.518-1.079a.983.983,0,0,0,.385-1.676Zm1.341,10.939c-1.126.145-2.227.312-3.351.432-2.609.312-5.171.624-7.78.864l-1.293.12a24.107,24.107,0,0,0,9.288,11.9l.335-1.009c.814-2.494,1.675-4.941,2.562-7.411.407-1.2.839-2.375,1.293-3.573a.97.97,0,0,0-1.054-1.323Zm16.806,15.3c-1.388-2.207-2.682-4.484-3.975-6.739-.574-.984-1.126-1.968-1.653-2.974a.992.992,0,0,0-1.748,0q-.828,1.547-1.723,3.021c-1.316,2.255-2.634,4.509-4.022,6.717l-.6.959a23.56,23.56,0,0,0,7.039,1.056,23.263,23.263,0,0,0,7.231-1.129ZM58.656,33.787l.12.936c.335,2.589.574,5.206.814,7.8.1,1.031.192,2.04.262,3.071a1,1,0,0,0,1.581.744c.814-.6,1.653-1.2,2.514-1.775,2.155-1.463,4.285-2.926,6.487-4.342l.814-.5a23.535,23.535,0,0,0-12.592-5.934ZM76.921,65.472c-2.609-.167-5.2-.407-7.805-.647-1.126-.1-2.227-.215-3.351-.337a.976.976,0,0,0-1.029,1.318c.407,1.079.789,2.16,1.174,3.263.839,2.447,1.7,4.916,2.489,7.411l.262.864a24,24,0,0,0,9.1-11.825ZM75.652,45.035l-.647.7c-1.8,1.92-3.638,3.765-5.483,5.613-1.174,1.2-2.442,2.35-3.663,3.526,1.628.407,3.256.839,4.884,1.318,2.514.719,5,1.416,7.493,2.23l.886.287c.025-.385.025-.792.025-1.2a23.718,23.718,0,0,0-3.495-12.474Zm0,0-.647.7c-1.8,1.92-3.638,3.765-5.483,5.613-1.174,1.2-2.442,2.35-3.663,3.526,1.628.407,3.256.839,4.884,1.318,2.514.719,5,1.416,7.493,2.23l.886.287c.025-.385.025-.792.025-1.2a23.718,23.718,0,0,0-3.495-12.474ZM76.92,65.472c-2.609-.167-5.2-.407-7.805-.647-1.126-.1-2.227-.215-3.351-.337a.976.976,0,0,0-1.029,1.318c.407,1.079.789,2.16,1.174,3.263.839,2.447,1.7,4.916,2.489,7.411l.262.864a24,24,0,0,0,9.1-11.825ZM58.656,33.787l.12.936c.335,2.589.574,5.206.814,7.8.1,1.031.192,2.04.262,3.071a1,1,0,0,0,1.581.744c.814-.6,1.653-1.2,2.514-1.775,2.155-1.463,4.285-2.926,6.487-4.342l.814-.5a23.535,23.535,0,0,0-12.592-5.934Zm3.231,45.668c-1.388-2.207-2.682-4.484-3.975-6.739-.574-.984-1.126-1.968-1.653-2.974a.992.992,0,0,0-1.748,0q-.828,1.547-1.723,3.021c-1.316,2.255-2.634,4.509-4.022,6.717l-.6.959A23.56,23.56,0,0,0,55.2,81.5a23.263,23.263,0,0,0,7.231-1.129Zm-16.806-15.3c-1.126.145-2.227.312-3.351.432-2.609.312-5.171.624-7.78.864l-1.293.12a24.107,24.107,0,0,0,9.288,11.9l.335-1.009c.814-2.494,1.675-4.941,2.562-7.411.407-1.2.839-2.375,1.293-3.573a.97.97,0,0,0-1.054-1.325ZM43.74,53.215c-.814-.744-1.6-1.488-2.394-2.28-1.868-1.848-3.71-3.67-5.531-5.565l-.767-.792a23.79,23.79,0,0,0-3.783,12.929c0,.457.025.886.025,1.318l1.126-.385c2.467-.886,4.956-1.655,7.421-2.469,1.174-.385,2.347-.719,3.518-1.079a.983.983,0,0,0,.385-1.677Zm1.341,10.939c-1.126.145-2.227.312-3.351.432-2.609.312-5.171.624-7.78.864l-1.293.12a24.107,24.107,0,0,0,9.288,11.9l.335-1.009c.814-2.494,1.675-4.941,2.562-7.411.407-1.2.839-2.375,1.293-3.573a.97.97,0,0,0-1.054-1.324Zm16.806,15.3c-1.388-2.207-2.682-4.484-3.975-6.739-.574-.984-1.126-1.968-1.653-2.974a.992.992,0,0,0-1.748,0q-.828,1.547-1.723,3.021c-1.316,2.255-2.634,4.509-4.022,6.717l-.6.959a23.56,23.56,0,0,0,7.039,1.056,23.263,23.263,0,0,0,7.231-1.129ZM58.656,33.787l.12.936c.335,2.589.574,5.206.814,7.8.1,1.031.192,2.04.262,3.071a1,1,0,0,0,1.581.744c.814-.6,1.653-1.2,2.514-1.775,2.155-1.463,4.285-2.926,6.487-4.342l.814-.5a23.535,23.535,0,0,0-12.592-5.934ZM76.921,65.472c-2.609-.167-5.2-.407-7.805-.647-1.126-.1-2.227-.215-3.351-.337a.976.976,0,0,0-1.029,1.318c.407,1.079.789,2.16,1.174,3.263.839,2.447,1.7,4.916,2.489,7.411l.262.864a24,24,0,0,0,9.1-11.825ZM75.652,45.035l-.647.7c-1.8,1.92-3.638,3.765-5.483,5.613-1.174,1.2-2.442,2.35-3.663,3.526,1.628.407,3.256.839,4.884,1.318,2.514.719,5,1.416,7.493,2.23l.886.287c.025-.385.025-.792.025-1.2a23.718,23.718,0,0,0-3.495-12.474Zm0,0-.647.7c-1.8,1.92-3.638,3.765-5.483,5.613-1.174,1.2-2.442,2.35-3.663,3.526,1.628.407,3.256.839,4.884,1.318,2.514.719,5,1.416,7.493,2.23l.886.287c.025-.385.025-.792.025-1.2a23.718,23.718,0,0,0-3.495-12.474ZM76.92,65.472c-2.609-.167-5.2-.407-7.805-.647-1.126-.1-2.227-.215-3.351-.337a.976.976,0,0,0-1.029,1.318c.407,1.079.789,2.16,1.174,3.263.839,2.447,1.7,4.916,2.489,7.411l.262.864a24,24,0,0,0,9.1-11.825ZM58.656,33.787l.12.936c.335,2.589.574,5.206.814,7.8.1,1.031.192,2.04.262,3.071a1,1,0,0,0,1.581.744c.814-.6,1.653-1.2,2.514-1.775,2.155-1.463,4.285-2.926,6.487-4.342l.814-.5a23.535,23.535,0,0,0-12.592-5.934Zm3.231,45.668c-1.388-2.207-2.682-4.484-3.975-6.739-.574-.984-1.126-1.968-1.653-2.974a.992.992,0,0,0-1.748,0q-.828,1.547-1.723,3.021c-1.316,2.255-2.634,4.509-4.022,6.717l-.6.959A23.56,23.56,0,0,0,55.2,81.5a23.263,23.263,0,0,0,7.231-1.129Zm-16.806-15.3c-1.126.145-2.227.312-3.351.432-2.609.312-5.171.624-7.78.864l-1.293.12a24.107,24.107,0,0,0,9.288,11.9l.335-1.009c.814-2.494,1.675-4.941,2.562-7.411.407-1.2.839-2.375,1.293-3.573a.97.97,0,0,0-1.054-1.325Zm16.806,15.3c-1.388-2.207-2.682-4.484-3.975-6.739-.574-.984-1.126-1.968-1.653-2.974a.992.992,0,0,0-1.748,0q-.828,1.547-1.723,3.021c-1.316,2.255-2.634,4.509-4.022,6.717l-.6.959A23.56,23.56,0,0,0,55.2,81.5a23.263,23.263,0,0,0,7.231-1.129ZM58.656,33.787l.12.936c.335,2.589.574,5.206.814,7.8.1,1.031.192,2.04.262,3.071a1,1,0,0,0,1.581.744c.814-.6,1.653-1.2,2.514-1.775,2.155-1.463,4.285-2.926,6.487-4.342l.814-.5a23.535,23.535,0,0,0-12.592-5.934ZM76.921,65.472c-2.609-.167-5.2-.407-7.805-.647-1.126-.1-2.227-.215-3.351-.337a.976.976,0,0,0-1.029,1.318c.407,1.079.789,2.16,1.174,3.263.839,2.447,1.7,4.916,2.489,7.411l.262.864a24,24,0,0,0,9.1-11.825ZM75.652,45.035l-.647.7c-1.8,1.92-3.638,3.765-5.483,5.613-1.174,1.2-2.442,2.35-3.663,3.526,1.628.407,3.256.839,4.884,1.318,2.514.719,5,1.416,7.493,2.23l.886.287c.025-.385.025-.792.025-1.2a23.718,23.718,0,0,0-3.495-12.474Zm0,0-.647.7c-1.8,1.92-3.638,3.765-5.483,5.613-1.174,1.2-2.442,2.35-3.663,3.526,1.628.407,3.256.839,4.884,1.318,2.514.719,5,1.416,7.493,2.23l.886.287c.025-.385.025-.792.025-1.2a23.718,23.718,0,0,0-3.495-12.474ZM76.92,65.472c-2.609-.167-5.2-.407-7.805-.647-1.126-.1-2.227-.215-3.351-.337a.976.976,0,0,0-1.029,1.318c.407,1.079.789,2.16,1.174,3.263.839,2.447,1.7,4.916,2.489,7.411l.262.864a24,24,0,0,0,9.1-11.825ZM58.656,33.787l.12.936c.335,2.589.574,5.206.814,7.8.1,1.031.192,2.04.262,3.071a1,1,0,0,0,1.581.744c.814-.6,1.653-1.2,2.514-1.775,2.155-1.463,4.285-2.926,6.487-4.342l.814-.5a23.535,23.535,0,0,0-12.592-5.934Zm3.231,45.668c-1.388-2.207-2.682-4.484-3.975-6.739-.574-.984-1.126-1.968-1.653-2.974a.992.992,0,0,0-1.748,0q-.828,1.547-1.723,3.021c-1.316,2.255-2.634,4.509-4.022,6.717l-.6.959A23.56,23.56,0,0,0,55.2,81.5a23.263,23.263,0,0,0,7.231-1.129Zm0,0c-1.388-2.207-2.682-4.484-3.975-6.739-.574-.984-1.126-1.968-1.653-2.974a.992.992,0,0,0-1.748,0q-.828,1.547-1.723,3.021c-1.316,2.255-2.634,4.509-4.022,6.717l-.6.959A23.56,23.56,0,0,0,55.2,81.5a23.263,23.263,0,0,0,7.231-1.129ZM58.656,33.787l.12.936c.335,2.589.574,5.206.814,7.8.1,1.031.192,2.04.262,3.071a1,1,0,0,0,1.581.744c.814-.6,1.653-1.2,2.514-1.775,2.155-1.463,4.285-2.926,6.487-4.342l.814-.5a23.535,23.535,0,0,0-12.592-5.934ZM76.921,65.472c-2.609-.167-5.2-.407-7.805-.647-1.126-.1-2.227-.215-3.351-.337a.976.976,0,0,0-1.029,1.318c.407,1.079.789,2.16,1.174,3.263.839,2.447,1.7,4.916,2.489,7.411l.262.864a24,24,0,0,0,9.1-11.825ZM75.652,45.035l-.647.7c-1.8,1.92-3.638,3.765-5.483,5.613-1.174,1.2-2.442,2.35-3.663,3.526,1.628.407,3.256.839,4.884,1.318,2.514.719,5,1.416,7.493,2.23l.886.287c.025-.385.025-.792.025-1.2a23.718,23.718,0,0,0-3.495-12.474Zm0,0-.647.7c-1.8,1.92-3.638,3.765-5.483,5.613-1.174,1.2-2.442,2.35-3.663,3.526,1.628.407,3.256.839,4.884,1.318,2.514.719,5,1.416,7.493,2.23l.886.287c.025-.385.025-.792.025-1.2a23.718,23.718,0,0,0-3.495-12.474ZM76.92,65.472c-2.609-.167-5.2-.407-7.805-.647-1.126-.1-2.227-.215-3.351-.337a.976.976,0,0,0-1.029,1.318c.407,1.079.789,2.16,1.174,3.263.839,2.447,1.7,4.916,2.489,7.411l.262.864a24,24,0,0,0,9.1-11.825ZM58.656,33.787l.12.936c.335,2.589.574,5.206.814,7.8.1,1.031.192,2.04.262,3.071a1,1,0,0,0,1.581.744c.814-.6,1.653-1.2,2.514-1.775,2.155-1.463,4.285-2.926,6.487-4.342l.814-.5a23.535,23.535,0,0,0-12.592-5.934Zm3.231,45.668c-1.388-2.207-2.682-4.484-3.975-6.739-.574-.984-1.126-1.968-1.653-2.974a.992.992,0,0,0-1.748,0q-.828,1.547-1.723,3.021c-1.316,2.255-2.634,4.509-4.022,6.717l-.6.959A23.56,23.56,0,0,0,55.2,81.5a23.263,23.263,0,0,0,7.231-1.129ZM58.656,33.787l.12.936c.335,2.589.574,5.206.814,7.8.1,1.031.192,2.04.262,3.071a1,1,0,0,0,1.581.744c.814-.6,1.653-1.2,2.514-1.775,2.155-1.463,4.285-2.926,6.487-4.342l.814-.5a23.535,23.535,0,0,0-12.592-5.934ZM76.921,65.472c-2.609-.167-5.2-.407-7.805-.647-1.126-.1-2.227-.215-3.351-.337a.976.976,0,0,0-1.029,1.318c.407,1.079.789,2.16,1.174,3.263.839,2.447,1.7,4.916,2.489,7.411l.262.864a24,24,0,0,0,9.1-11.825ZM75.652,45.035l-.647.7c-1.8,1.92-3.638,3.765-5.483,5.613-1.174,1.2-2.442,2.35-3.663,3.526,1.628.407,3.256.839,4.884,1.318,2.514.719,5,1.416,7.493,2.23l.886.287c.025-.385.025-.792.025-1.2a23.718,23.718,0,0,0-3.495-12.474Zm0,0-.647.7c-1.8,1.92-3.638,3.765-5.483,5.613-1.174,1.2-2.442,2.35-3.663,3.526,1.628.407,3.256.839,4.884,1.318,2.514.719,5,1.416,7.493,2.23l.886.287c.025-.385.025-.792.025-1.2a23.718,23.718,0,0,0-3.495-12.474ZM76.92,65.472c-2.609-.167-5.2-.407-7.805-.647-1.126-.1-2.227-.215-3.351-.337a.976.976,0,0,0-1.029,1.318c.407,1.079.789,2.16,1.174,3.263.839,2.447,1.7,4.916,2.489,7.411l.262.864a24,24,0,0,0,9.1-11.825ZM58.656,33.787l.12.936c.335,2.589.574,5.206.814,7.8.1,1.031.192,2.04.262,3.071a1,1,0,0,0,1.581.744c.814-.6,1.653-1.2,2.514-1.775,2.155-1.463,4.285-2.926,6.487-4.342l.814-.5a23.535,23.535,0,0,0-12.592-5.934Zm0,0,.12.936c.335,2.589.574,5.206.814,7.8.1,1.031.192,2.04.262,3.071a1,1,0,0,0,1.581.744c.814-.6,1.653-1.2,2.514-1.775,2.155-1.463,4.285-2.926,6.487-4.342l.814-.5a23.535,23.535,0,0,0-12.592-5.934Zm17,11.248-.647.7c-1.8,1.92-3.638,3.765-5.483,5.613-1.174,1.2-2.442,2.35-3.663,3.526,1.628.407,3.256.839,4.884,1.318,2.514.719,5,1.416,7.493,2.23l.886.287c.025-.385.025-.792.025-1.2a23.718,23.718,0,0,0-3.5-12.474Zm0,0-.647.7c-1.8,1.92-3.638,3.765-5.483,5.613-1.174,1.2-2.442,2.35-3.663,3.526,1.628.407,3.256.839,4.884,1.318,2.514.719,5,1.416,7.493,2.23l.886.287c.025-.385.025-.792.025-1.2a23.718,23.718,0,0,0-3.5-12.474Zm-17-11.248.12.936c.335,2.589.574,5.206.814,7.8.1,1.031.192,2.04.262,3.071a1,1,0,0,0,1.581.744c.814-.6,1.653-1.2,2.514-1.775,2.155-1.463,4.285-2.926,6.487-4.342l.814-.5a23.535,23.535,0,0,0-12.592-5.934Zm0,0,.12.936c.335,2.589.574,5.206.814,7.8.1,1.031.192,2.04.262,3.071a1,1,0,0,0,1.581.744c.814-.6,1.653-1.2,2.514-1.775,2.155-1.463,4.285-2.926,6.487-4.342l.814-.5a23.535,23.535,0,0,0-12.592-5.934Zm17,11.248-.647.7c-1.8,1.92-3.638,3.765-5.483,5.613-1.174,1.2-2.442,2.35-3.663,3.526,1.628.407,3.256.839,4.884,1.318,2.514.719,5,1.416,7.493,2.23l.886.287c.025-.385.025-.792.025-1.2a23.718,23.718,0,0,0-3.5-12.474Zm0,0-.647.7c-1.8,1.92-3.638,3.765-5.483,5.613-1.174,1.2-2.442,2.35-3.663,3.526,1.628.407,3.256.839,4.884,1.318,2.514.719,5,1.416,7.493,2.23l.886.287c.025-.385.025-.792.025-1.2a23.718,23.718,0,0,0-3.5-12.474Zm-17-11.248.12.936c.335,2.589.574,5.206.814,7.8.1,1.031.192,2.04.262,3.071a1,1,0,0,0,1.581.744c.814-.6,1.653-1.2,2.514-1.775,2.155-1.463,4.285-2.926,6.487-4.342l.814-.5a23.535,23.535,0,0,0-12.592-5.934Zm0,0,.12.936c.335,2.589.574,5.206.814,7.8.1,1.031.192,2.04.262,3.071a1,1,0,0,0,1.581.744c.814-.6,1.653-1.2,2.514-1.775,2.155-1.463,4.285-2.926,6.487-4.342l.814-.5a23.535,23.535,0,0,0-12.592-5.934Zm0,0,.12.936c.335,2.589.574,5.206.814,7.8.1,1.031.192,2.04.262,3.071a1,1,0,0,0,1.581.744c.814-.6,1.653-1.2,2.514-1.775,2.155-1.463,4.285-2.926,6.487-4.342l.814-.5a23.535,23.535,0,0,0-12.592-5.934Z" fill="#0277bd"/>
      <path id="Path_70" data-name="Path 70" d="M20.951,31.526a2.924,2.924,0,0,1-1.7-.265,2.921,2.921,0,0,0-2.06-.287,16.62,16.62,0,0,0-1.89.479,12.985,12.985,0,0,0-3.615,1.678A2.6,2.6,0,1,1,8.67,28.884a2.661,2.661,0,0,1,2.01-.457,11.685,11.685,0,0,0,3.975.025,12.952,12.952,0,0,0,1.915-.36,2.811,2.811,0,0,0,1.748-1.126,3.31,3.31,0,0,1,1.508-.936,30.437,30.437,0,0,0,1.125,5.5Z" transform="translate(6.796 34.473)" fill="none"/>
      <path id="Path_71" data-name="Path 71" d="M25.813,37.123a3.074,3.074,0,0,1-1.293,1.368,2.937,2.937,0,0,0-1.483,1.463,16.547,16.547,0,0,0-.767,1.775,12.389,12.389,0,0,0-.839,3.91,2.611,2.611,0,1,1-4.357-2.015,13.629,13.629,0,0,0,2.442-3.166c.312-.577.6-1.151.861-1.75a3.02,3.02,0,0,0,.167-2.087,3.266,3.266,0,0,1,.192-1.9,28.238,28.238,0,0,0,5.077,2.4Z" transform="translate(19.722 47.49)" fill="none"/>
      <path id="Path_72" data-name="Path 72" d="M36.794,47.437a2.63,2.63,0,0,1-3.688.167,2.518,2.518,0,0,1-.839-1.87,13.043,13.043,0,0,0-.839-3.91,18.844,18.844,0,0,0-.742-1.8A3.02,3.02,0,0,0,29.2,38.563a3.445,3.445,0,0,1-1.341-1.416,28.167,28.167,0,0,0,5.124-2.469V34.7a3.55,3.55,0,0,1,.215,2.04,2.9,2.9,0,0,0,.145,2.087c.262.577.552,1.176.861,1.728a12.3,12.3,0,0,0,2.417,3.191,2.628,2.628,0,0,1,.173,3.691Z" transform="translate(37.158 47.418)" fill="none"/>
      <path id="Path_73" data-name="Path 73" d="M46.678,33.232a2.655,2.655,0,0,1-2.01-.36,12.556,12.556,0,0,0-3.663-1.583,17.616,17.616,0,0,0-1.89-.407,2.961,2.961,0,0,0-2.06.335,3.239,3.239,0,0,1-2.035.287h-.072a28.832,28.832,0,0,0,1.1-5.588h.025a3.34,3.34,0,0,1,1.8,1.006,2.914,2.914,0,0,0,1.773,1.056,17.573,17.573,0,0,0,1.915.312,12.508,12.508,0,0,0,4-.145,2.6,2.6,0,0,1,1.124,5.086Z" transform="translate(47.768 34.302)" fill="none"/>
    </g>
    <g id="icons8-amazon-web-services" transform="translate(6748.97 10402)">
      <path id="Path_66" data-name="Path 66" d="M35.836,41.88a14.409,14.409,0,0,0,.516,4.209,25.288,25.288,0,0,0,1.5,3.405,2.069,2.069,0,0,1,.328,1.088A1.884,1.884,0,0,1,37.29,52l-2.95,1.986a2.223,2.223,0,0,1-1.217.425,2.148,2.148,0,0,1-1.4-.663,14.616,14.616,0,0,1-1.686-2.223c-.469-.8-.936-1.7-1.452-2.789a17.233,17.233,0,0,1-13.767,6.526c-3.933,0-7.071-1.135-9.365-3.4a12.217,12.217,0,0,1-3.464-9.08,12.223,12.223,0,0,1,4.261-9.74c2.857-2.458,6.649-3.69,11.47-3.69a36.491,36.491,0,0,1,4.962.378c1.73.238,3.511.616,5.385,1.041V27.315c0-3.593-.748-6.1-2.2-7.567-1.5-1.466-4.027-2.176-7.631-2.176a20.972,20.972,0,0,0-5.056.616A36.867,36.867,0,0,0,8.12,19.8a13.6,13.6,0,0,1-1.639.616,2.882,2.882,0,0,1-.748.141c-.657,0-.982-.472-.982-1.466V16.769a3.008,3.008,0,0,1,.328-1.654,3.528,3.528,0,0,1,1.311-.994,26.878,26.878,0,0,1,5.9-2.129,28.058,28.058,0,0,1,7.3-.9c5.572,0,9.646,1.276,12.268,3.83,2.575,2.554,3.886,6.432,3.886,11.632V41.877h.088ZM16.825,49.065a15.059,15.059,0,0,0,4.822-.851A10.407,10.407,0,0,0,26.1,45.188a7.549,7.549,0,0,0,1.593-3.027,17.112,17.112,0,0,0,.469-4.115V36.061a38.335,38.335,0,0,0-4.308-.8,35.232,35.232,0,0,0-4.4-.284c-3.138,0-5.432.616-6.977,1.892a6.617,6.617,0,0,0-2.3,5.431,6.64,6.64,0,0,0,1.733,5.012,6.445,6.445,0,0,0,4.916,1.753Zm37.6,5.109a2.6,2.6,0,0,1-1.78-.472,3.859,3.859,0,0,1-.982-1.845l-11-36.552a8.319,8.319,0,0,1-.422-1.892,1.033,1.033,0,0,1,1.123-1.182h4.59a2.581,2.581,0,0,1,1.827.472,3.876,3.876,0,0,1,.936,1.845l7.866,31.305,7.3-31.305a3.357,3.357,0,0,1,.889-1.845,3.193,3.193,0,0,1,1.874-.472h3.745a2.8,2.8,0,0,1,1.874.472,3.193,3.193,0,0,1,.889,1.845l7.4,31.683,8.1-31.683A4.112,4.112,0,0,1,89.59,12.7a3.029,3.029,0,0,1,1.827-.472h4.355a1.046,1.046,0,0,1,1.17,1.182,4.746,4.746,0,0,1-.094.757,6.725,6.725,0,0,1-.328,1.182L85.23,51.9a3.668,3.668,0,0,1-.982,1.845,2.963,2.963,0,0,1-1.78.472H78.441a2.8,2.8,0,0,1-1.874-.472,3.359,3.359,0,0,1-.889-1.892l-7.256-30.5L61.213,51.81a3.735,3.735,0,0,1-.889,1.892,2.88,2.88,0,0,1-1.874.472Zm60.164,1.276a30.752,30.752,0,0,1-7.209-.851A21.1,21.1,0,0,1,102,52.707a3.4,3.4,0,0,1-1.452-1.323,3.353,3.353,0,0,1-.282-1.323V47.652c0-.994.375-1.466,1.076-1.466a2.626,2.626,0,0,1,.842.141c.282.094.7.284,1.17.472a25.248,25.248,0,0,0,5.15,1.654,27.852,27.852,0,0,0,5.572.566,12.527,12.527,0,0,0,6.836-1.56,5.1,5.1,0,0,0,2.434-4.493,4.643,4.643,0,0,0-1.264-3.311,11.716,11.716,0,0,0-4.728-2.458l-6.789-2.129c-3.417-1.088-5.945-2.7-7.49-4.825a11.329,11.329,0,0,1-2.34-6.857,10.624,10.624,0,0,1,1.264-5.25,12.145,12.145,0,0,1,3.37-3.877,14.78,14.78,0,0,1,4.868-2.458,20.373,20.373,0,0,1,5.9-.8,23.5,23.5,0,0,1,3.138.188c1.076.141,2.059.331,3.044.519.936.238,1.827.472,2.669.757a10.248,10.248,0,0,1,1.968.851,4.056,4.056,0,0,1,1.4,1.182,2.56,2.56,0,0,1,.422,1.56v2.223c0,.994-.375,1.513-1.076,1.513a4.833,4.833,0,0,1-1.78-.566,21.251,21.251,0,0,0-8.989-1.845,12,12,0,0,0-6.226,1.323,4.576,4.576,0,0,0-2.2,4.209,4.5,4.5,0,0,0,1.4,3.358,13.941,13.941,0,0,0,5.15,2.6L121.712,31c3.37,1.088,5.807,2.6,7.256,4.54a10.787,10.787,0,0,1,2.153,6.619,12.269,12.269,0,0,1-1.217,5.484,12.715,12.715,0,0,1-3.417,4.162,15.076,15.076,0,0,1-5.2,2.648,22.115,22.115,0,0,1-6.7,1Z" transform="translate(3.838)" fill="#252f3e"/>
      <path id="Path_67" data-name="Path 67" d="M127.274,43.5c-15.4,11.491-37.784,17.591-57.029,17.591A102.6,102.6,0,0,1,.623,34.28C-.829,32.957.482,31.159,2.216,32.2A139.354,139.354,0,0,0,71.885,50.88a137.788,137.788,0,0,0,53.14-10.972C127.6,38.726,129.8,41.609,127.274,43.5Zm6.414-7.376c-1.968-2.554-13.016-1.229-18.025-.616-1.5.188-1.733-1.135-.375-2.129,8.8-6.241,23.269-4.446,24.955-2.364,1.686,2.129-.469,16.741-8.708,23.738-1.264,1.088-2.481.519-1.921-.9,1.875-4.677,6.042-15.224,4.075-17.729Z" transform="translate(0 34.931)" fill="#f90"/>
    </g>
    <g id="apache-mesos-icon" transform="translate(6895.328 10713.981)">
      <g id="Group_29" data-name="Group 29">
        <path id="Path_118" data-name="Path 118" d="M41.781,38.983V25.017l-12.05,7,12.05,6.97" fill="#00445e"/>
        <path id="Path_119" data-name="Path 119" d="M41,23.652,28.933,16.676V30.648l12.065-7m-13.633,7V16.676L15.29,23.652l12.075,7M26.583,15.34,14.523,8.32v14l12.06-6.97" fill="#00aede"/>
        <path id="Path_120" data-name="Path 120" d="M41,40.328l-12.065-6.97V47.325l12.065-7m-13.635,7V33.357L15.29,40.327l12.075,7" fill="#00445e"/>
        <path id="Path_121" data-name="Path 121" d="M55.432,32.012l-12.085-7V38.983l12.085-6.97m-42.48-9.706V8.316L.8,15.336l12.154,6.97" fill="#00aede"/>
        <path id="Path_122" data-name="Path 122" d="M26.583,48.67l-12.06-7V55.66l12.06-7" fill="#00445e"/>
        <path id="Path_123" data-name="Path 123" d="M12.951,55.66V41.673L.8,48.67l12.154,7" fill="#00aede"/>
        <path id="Path_124" data-name="Path 124" d="M26.583,32.012l-12.06-7V38.983l12.06-6.97" fill="#00445e"/>
        <path id="Path_125" data-name="Path 125" d="M41.781,22.307V8.316l-12.05,7.02,12.05,6.97" fill="#00aede"/>
        <path id="Path_126" data-name="Path 126" d="M28.933,0V13.967L41,6.967,28.933,0M15.291,6.976l12.075,7V0L15.291,6.976M41,57,28.935,50.03V64L41,57M27.365,64V50.033L15.29,57l12.075,7" fill="#00445e"/>
        <path id="Path_127" data-name="Path 127" d="M56.211,47.324V33.357l-12.05,6.97,12.05,7m-43.26-8.34v-14L.8,32l12.154,6.97m-.778,1.355L0,33.358V47.325L12.173,40.32m44.038-9.68V16.676l-12.05,6.976,12.05,7m-.78-15.312L43.345,8.316v14l12.085-6.97m0,33.334-12.085-7V55.66l12.085-7" fill="#00aede"/>
        <path id="Path_128" data-name="Path 128" d="M41.781,55.66V41.673l-12.05,7,12.05,7" fill="#00445e"/>
        <path id="Path_129" data-name="Path 129" d="M12.173,23.652,0,16.676V30.648l12.173-7" fill="#00aede"/>
      </g>
    </g>
    <g id="webpack" transform="translate(6801.084 10518.782)">
      <path id="Path_92" data-name="Path 92" d="M117.29,98.1,66.24,127V104.49L98,87Zm3.5-3.16V34.55l-18.68,10.8V84.16l18.67,10.77ZM10.71,98.1l51,28.88V104.49L29.94,87Zm-3.5-3.16V34.55l18.68,10.8V84.16ZM9.4,30.64,61.76,1V22.76L28.21,41.21l-.27.15Zm109.18,0L66.24,1V22.76L99.79,41.2l.27.15L118.6,30.64Z" fill="#8ed6fb"/>
      <path id="Path_93" data-name="Path 93" d="M61.76,99.37,30.37,82.1V47.92L61.76,66Zm4.48,0L97.63,82.12V47.92L66.24,66ZM32.5,44,64,26.66,95.5,44,64,62.16Z" fill="#1c78c0"/>
    </g>
    <g id="npm-icon" transform="translate(7465.342 10738.299) rotate(-30)">
      <g id="Group_27" data-name="Group 27">
        <path id="Path_102" data-name="Path 102" d="M0,0H64V64H0Z" fill="#cb3837"/>
        <path id="Path_103" data-name="Path 103" d="M10.728,53.272H31.814V21.456H42.542V53.272H53.27V10.728H10.728Z" fill="#fff"/>
      </g>
    </g>
    <g id="C_" data-name="C#" transform="translate(6491.702 10722.623) rotate(-15.009)">
      <path id="Path_8" data-name="Path 8" d="M49.025,61.417l2.029,12.549a24.335,24.335,0,0,1-6.138,2.006A43.43,43.43,0,0,1,34.967,77c-10.94-.206-19.157-3.6-24.651-10.08Q2,57.123,2,42.08q.371-17.82,9.9-27.36C18.434,8.291,26.552,5,36.353,5a43.073,43.073,0,0,1,9.6.977A21.6,21.6,0,0,1,51.9,8.034L49.025,20.84l-5.247-1.749A27.419,27.419,0,0,0,36.9,18.32a18.787,18.787,0,0,0-14.207,5.657C18.929,27.731,17,33.491,16.85,41.154c0,6.994,1.832,12.446,5.346,16.457,3.514,3.96,8.465,6.017,14.8,6.069l6.583-.617a25.772,25.772,0,0,0,5.445-1.646M60.856,77l3.019-20.571H56.45l1.683-10.286h7.425l1.584-10.286H59.717L61.4,25.571h7.425L71.845,5h9.9l-3.02,20.571h4.95L86.695,5h9.9l-3.02,20.571H101L99.317,35.857H91.892L90.308,46.143h7.425L96.05,56.429H88.625L85.606,77h-9.9l3.02-20.571h-4.95L70.756,77h-9.9m14.6-30.857h4.95L81.99,35.857H77.04Z" transform="translate(-2 -5)" fill="#0277bd"/>
    </g>
    <g id="adobe-xd" transform="translate(6563.511 10804.853) rotate(15.009)">
      <g id="Photo_Surface" data-name="Photo Surface" transform="translate(8 12)">
        <rect id="Outline_no_shadow" data-name="Outline no shadow" width="102.89" height="99.46" rx="42" fill="#470137"/>
      </g>
      <path id="Path_89" data-name="Path 89" d="M81.446,74.414,68.791,96.158l13.637,23.15c.279.472.159.7-.352.7H73.571a1.055,1.055,0,0,1-1.046-.562l-9.6-17.607h-.073L53.507,119.45a1.033,1.033,0,0,1-.909.562h-8.18c-.467,0-.557-.231-.279-.7L57.55,96.792,44.775,74.272c-.279-.373-.184-.562.279-.562h8.523a.96.96,0,0,1,.909.493l9,17.4h.069l8.956-17.4a.96.96,0,0,1,.9-.493h7.751C81.682,73.711,81.772,73.947,81.446,74.414Zm20.792,46.455c-4.973,0-8.8-1.41-11.772-4.227S86,109.662,86,104.149A16.792,16.792,0,0,1,90.8,91.8a17.148,17.148,0,0,1,12.638-5.23,12.7,12.7,0,0,1,3.13.334V72.4a.356.356,0,0,1,.4-.4H114.8c.219,0,.33.133.33.4v40.62c0,1.715.742,3.177.857,4.429a.54.54,0,0,1-.334.6,32.029,32.029,0,0,1-13.415,2.82Zm4.343-6.641V93.491c-.279-.489-1.753-.917-3.262-.917a8.394,8.394,0,0,0-6.6,2.937,12.535,12.535,0,0,0-3,8.317,11.357,11.357,0,0,0,2.962,8.115,8.531,8.531,0,0,0,6.353,2.924c1.6,0,3.166-.24,3.547-.639Z" transform="translate(-20.557 -34.274)" fill="#ff61f6"/>
    </g>
    <g id="grafana-icon" transform="translate(6678.257 10854.547)">
      <path id="Path_131" data-name="Path 131" d="M30.1,8.379l-.058.288-.918.273-1.264.435-1.252.508A25.852,25.852,0,0,0,24.145,11.1l-2.3,1.444-.192-.088a19.041,19.041,0,0,0-14.423.593A20.9,20.9,0,0,0,11.008,27.22c-.18.5-.35,1.009-.5,1.522a35.424,35.424,0,0,0-1.249,5.685l-.1.848A18.9,18.9,0,0,0,0,45.907c5.892,6.776,12.761,7.2,12.761,7.2a.122.122,0,0,1,.018-.015A30.041,30.041,0,0,0,15.8,57.514q.713.867,1.5,1.68a15.869,15.869,0,0,0,.3,11.254,18.307,18.307,0,0,0,11.773-3.589c.653.221,1.316.416,1.983.59a29.73,29.73,0,0,0,6.143.914c.516.022,1.032.033,1.544.03h.412l.325-.011.32-.015.007.011A13.2,13.2,0,0,0,48.63,73.4a13.6,13.6,0,0,0,4.086-8.991v-.18a1.1,1.1,0,0,0-.011-.188,24.788,24.788,0,0,0,2.318-1.835,24.085,24.085,0,0,0,4.02-4.713q.16-.243.31-.49a10.811,10.811,0,0,0,7.454-2.7,11.372,11.372,0,0,0-3.865-7.2.629.629,0,0,0-.055-.04c-.033-.022-.052-.037-.052-.037q-.047-.033-.1-.063l.067-.821c.033-.49.045-.984.048-1.47V43.9l-.015-.306-.022-.413c-.007-.143-.018-.265-.03-.4l-.037-.38-.045-.38-.052-.376c-.073-.5-.17-1-.283-1.489A18.826,18.826,0,0,0,51.759,27.236a18.381,18.381,0,0,0-7.775-1.6l-.321.007h-.191l-.133.007-.32.022q-.177.011-.353.03c-.443.045-.881.1-1.316.185a14.588,14.588,0,0,0-8.524,4.979,14.323,14.323,0,0,0-2.355,3.973,14.084,14.084,0,0,0-.936,4.248q-.033.522-.022,1.046,0,.129.007.258l.011.28c.011.17.025.335.04.5a11.2,11.2,0,0,0,.391,2.053,10.97,10.97,0,0,0,4.349,6.018A10.666,10.666,0,0,0,37.3,50.661a10.357,10.357,0,0,0,2.966.423c.118,0,.236,0,.353-.007.063,0,.125-.007.188-.007l.188-.011.3-.03c.022,0,.055-.008.085-.011l.092-.011c.063-.007.122-.018.185-.025.125-.015.232-.04.343-.058s.221-.045.331-.073c.218-.048.428-.115.638-.177a8.21,8.21,0,0,0,1.161-.486,8.47,8.47,0,0,0,1-.611q.131-.094.258-.195a.757.757,0,0,0,.118-1.069.749.749,0,0,0-.947-.18c-.077.045-.158.085-.24.125a7.077,7.077,0,0,1-.869.358,7.707,7.707,0,0,1-.954.236c-.166.022-.331.048-.5.063a2,2,0,0,1-.258.015c-.085,0-.177.011-.255.007s-.162,0-.247,0l-.31-.015h-.044l-.07-.007a.832.832,0,0,1-.14-.015l-.276-.037a8.115,8.115,0,0,1-2.215-.648,8,8,0,0,1-2.045-1.341,7.765,7.765,0,0,1-1.6-2A7.521,7.521,0,0,1,33.575,41l.018-.373V40.56l.007-.092a1.654,1.654,0,0,1,.018-.185c.025-.243.063-.49.107-.729a9.643,9.643,0,0,1,4.031-6.264,9.462,9.462,0,0,1,1.371-.781,9.611,9.611,0,0,1,1.492-.541,9.393,9.393,0,0,1,1.574-.276q.4-.033.8-.033h.18l.218.007h.162l.273.018a12.546,12.546,0,0,1,1.725.258,12.306,12.306,0,0,1,3.276,1.242,12.043,12.043,0,0,1,4.9,5.085A11.618,11.618,0,0,1,54.85,41.7q.067.45.107.9l.018.228.011.228c0,.078,0,.151.007.228s0,.158,0,.213v.424l-.026.534c-.025.328-.052.659-.1.987s-.1.648-.155.973-.133.641-.218.958a15.081,15.081,0,0,1-.6,1.872,15.622,15.622,0,0,1-8.007,8.446,15.306,15.306,0,0,1-3.8,1.164,14.947,14.947,0,0,1-1.983.2h-1.01c-.358-.007-.711-.025-1.065-.052a20.335,20.335,0,0,1-4.183-.756A20.619,20.619,0,0,1,19.674,43.9a20.323,20.323,0,0,1-.681-4.065l-.018-.32V39.46l-.011-.339V38.3c0-.166.007-.335.011-.5q.039-1.039.17-2.071.133-1.053.346-2.093c.143-.693.313-1.382.5-2.056a27.117,27.117,0,0,1,1.441-3.9,21.584,21.584,0,0,1,4.455-6.426A18.455,18.455,0,0,1,27.288,20q.728-.582,1.511-1.091a17.719,17.719,0,0,1,1.6-.939c.273-.148.553-.276.833-.413l.424-.188c.14-.063.283-.125.428-.18.571-.243,1.161-.446,1.75-.638l.446-.136c.148-.048.3-.081.45-.125.3-.085.6-.155.906-.232.151-.04.306-.067.456-.1l.461-.1.461-.085.232-.04.232-.037.465-.07c.173-.03.35-.045.523-.07l.52-.063.656-.067.128-.007.526-.033.262-.018h.176l.45-.022q.888-.028,1.777,0a24.576,24.576,0,0,1,3.449.383,24.086,24.086,0,0,1,6.264,2.082,25.244,25.244,0,0,1,5.114,3.335l.276.236.27.24c.18.158.353.325.526.483s.339.328.508.49l.486.5c.63.668,1.216,1.345,1.743,2.027a26.366,26.366,0,0,1,2.576,4.028c.045.081.085.162.125.243l.118.243c.078.158.158.317.228.475l.218.468.2.456q.36.856.668,1.732.407,1.167.711,2.366A.58.58,0,0,0,67.58,35a24.825,24.825,0,0,0-.826-6.832,26.334,26.334,0,0,0-1.9-5.059,27.65,27.65,0,0,0-5.469-7.48,10.684,10.684,0,0,0-1.257-7.665,11.352,11.352,0,0,0-7.4,1.9l-.471-.2c-.674-.273-1.364-.526-2.075-.751s-1.437-.431-2.178-.6-1.5-.32-2.27-.438l-.4-.058A13.717,13.717,0,0,0,36.672,0,14.586,14.586,0,0,0,30.1,8.379" fill="url(#linear-gradient-2)"/>
    </g>
    <g id="leetcode_2_" data-name="leetcode(2)" transform="translate(7741.082 10561.282)">
      <path id="Path_94" data-name="Path 94" d="M42.49,16.545a3.43,3.43,0,0,0-3.312-3.535H12.728a3.432,3.432,0,0,0-3.312,3.535,3.432,3.432,0,0,0,3.312,3.538h26.45A3.431,3.431,0,0,0,42.49,16.545Z" transform="translate(12.209 21.184)" fill="#b3b1b0"/>
      <path id="Path_95" data-name="Path 95" d="M42.49,14.355H9.416a3.432,3.432,0,0,0,3.312,3.538h26.45A3.431,3.431,0,0,0,42.49,14.355Z" transform="translate(12.209 23.374)" fill="#9c9a99"/>
      <path id="Path_96" data-name="Path 96" d="M4.856,14.355H4.735A8,8,0,0,0,7.093,19.79c3.44,3.511,6.936,6.965,10.408,10.445l.536.52c1.233.8,1.243,3.285.478,4.392a3.91,3.91,0,0,1-3.341,1.916h-.163a2.991,2.991,0,0,1-1.393-.476c-.092-.053-.184-.1-.273-.163a13.974,13.974,0,0,0,9.43,3.283,13.823,13.823,0,0,0,10-3.927l6.8-6.931a3.553,3.553,0,0,0-.1-4.994,3.614,3.614,0,0,0-2.57-1.085,3.323,3.323,0,0,0-2.381.983L27.491,30.6a6.47,6.47,0,0,1-4.752,1.74,6.491,6.491,0,0,1-4.757-1.74L6.688,19.136a6.878,6.878,0,0,1-1.832-4.781Z" transform="translate(4.587 23.374)" fill="#c98f1b"/>
      <path id="Path_97" data-name="Path 97" d="M9.322,14.355h-7.4A15.352,15.352,0,0,0,6.489,25.134c3.48,3.511,6.983,7,10.471,10.5a5.578,5.578,0,0,0,.972.788c.089.055.179.11.273.163a2.991,2.991,0,0,0,1.393.476h.163A3.91,3.91,0,0,0,23.1,35.15c.765-1.106.752-3.6-.478-4.392l-.536-.52c-3.472-3.48-6.97-6.933-10.408-10.445A8,8,0,0,1,9.32,14.355Z" transform="translate(0 23.374)" fill="#060605"/>
      <path id="Path_98" data-name="Path 98" d="M5.9,47.8,17.231,59.259a13.763,13.763,0,0,0,10,3.816,13.823,13.823,0,0,0,10-3.927l6.8-6.931a3.553,3.553,0,0,0-.1-4.994,3.484,3.484,0,0,0-4.952-.1l-7.033,6.852a6.47,6.47,0,0,1-4.752,1.74,6.491,6.491,0,0,1-4.757-1.74l-11.3-11.469a6.925,6.925,0,0,1-1.832-4.9,6.673,6.673,0,0,1,1.832-4.794L22.4,21.3a6.523,6.523,0,0,1,4.789-1.7,6.462,6.462,0,0,1,4.752,1.74l7.036,6.86a3.484,3.484,0,0,0,4.954-.1,3.557,3.557,0,0,0,.1-5l-6.8-6.925a13.112,13.112,0,0,0-6.287-3.5l-.087-.016,6.431-6.581a3.552,3.552,0,0,0-.1-5,3.491,3.491,0,0,0-4.96-.1L5.9,27.53A14.071,14.071,0,0,0,2,37.613,14.312,14.312,0,0,0,5.9,47.8Z" transform="translate(0.134 0.003)" fill="#e7a41f"/>
      <path id="Path_99" data-name="Path 99" d="M18.206,59.96a5.542,5.542,0,0,1-1.246-.949c-3.488-3.5-6.991-6.991-10.471-10.5A15.207,15.207,0,0,1,4.426,29.27a15.543,15.543,0,0,1,2.2-2.639Q19.278,13.96,31.922,1.284a3.727,3.727,0,0,1,5.464-.173,3.793,3.793,0,0,1-.2,5.427q-3.037,3.062-6.073,6.11a2.079,2.079,0,0,1-.594.754c-2.268,2.3-4.6,4.547-6.833,6.883-.292.3-.689.489-.978.8-3.74,3.74-7.522,7.438-11.21,11.228a7.627,7.627,0,0,0,.179,10.849c3.44,3.511,6.936,6.965,10.408,10.445l.536.52c1.233.8,1.243,3.285.478,4.392a3.89,3.89,0,0,1-3.5,1.913,3.051,3.051,0,0,1-1.39-.476Z" transform="translate(0 0.001)" fill="#070706"/>
      <path id="Path_100" data-name="Path 100" d="M26.514,12.684a2.167,2.167,0,0,1-.581.718c-2.268,2.3-4.6,4.547-6.833,6.883-.292.3-.689.489-.978.8-3.74,3.74-7.522,7.438-11.21,11.228a7.5,7.5,0,0,0-2.174,5.525H4.86c0-.076-.005-.152-.005-.229a6.673,6.673,0,0,1,1.832-4.794L17.948,21.3a6.523,6.523,0,0,1,4.789-1.7,6.462,6.462,0,0,1,4.752,1.74l7.033,6.86a3.332,3.332,0,0,0,2.386.986A3.613,3.613,0,0,0,39.477,28.1a3.557,3.557,0,0,0,.1-5l-6.8-6.925a13.092,13.092,0,0,0-6.261-3.493ZM30.138,0a3.367,3.367,0,0,0-1.477.347A3.825,3.825,0,0,1,30.138,0Z" transform="translate(4.586)" fill="#eab03c"/>
      <path id="Path_101" data-name="Path 101" d="M34.807,0h-.081a3.768,3.768,0,0,0-1.477.347,4.509,4.509,0,0,0-1.325.936Q19.277,13.953,6.632,26.63A15.2,15.2,0,0,0,1.92,37.842H9.326A7.506,7.506,0,0,1,11.5,32.317c3.685-3.79,7.47-7.488,11.21-11.228.292-.313.686-.5.978-.8,2.231-2.337,4.565-4.578,6.833-6.883a2.222,2.222,0,0,0,.581-.718c0-.013.008-.024.013-.037L37.186,6.54a3.791,3.791,0,0,0,.2-5.427A3.607,3.607,0,0,0,34.807,0Z" transform="translate(0.001)" fill="#272726"/>
    </g>
    <g id="Layer_2" data-name="Layer 2" transform="translate(6195.665 10584.12) rotate(13.008)">
      <g id="Layer_1_copy" data-name="Layer 1 copy">
        <g id="Figma_icon" data-name="Figma icon">
          <g id="ads_manager" data-name="ads manager" transform="translate(42.992 42.992)">
            <rect id="Rectangle_3" data-name="Rectangle 3" width="104.584" height="104.584" rx="2" fill="#525967"/>
            <path id="Path_90" data-name="Path 90" d="M94.978,10.214A10.672,10.672,0,0,1,105.65,20.885V94.978A10.672,10.672,0,0,1,94.978,105.65H20.885A10.672,10.672,0,0,1,10.214,94.979V20.885a10.672,10.672,0,0,1,10.67-10.671H94.978m0-4.574H20.885A15.245,15.245,0,0,0,5.64,20.885V94.978a15.245,15.245,0,0,0,15.245,15.245H94.978a15.245,15.245,0,0,0,15.245-15.245V20.885A15.245,15.245,0,0,0,94.978,5.64Z" transform="translate(-5.64 -5.64)" fill="#454b57"/>
            <path id="path0_fill" data-name="path0 fill" d="M22.115,40.28A13.035,13.035,0,0,0,35.15,27.245V14.21H22.115a13.035,13.035,0,1,0,0,26.07Z" transform="translate(17.142 51.117)" fill="#0acf83"/>
            <path id="path1_fill" data-name="path1 fill" d="M9.08,23.825A13.035,13.035,0,0,1,22.115,10.79H35.15V36.86H22.115A13.035,13.035,0,0,1,9.08,23.825Z" transform="translate(17.142 28.467)" fill="#a259ff"/>
            <path id="path1_fill-2" data-name="path1 fill" d="M9.08,20.4A13.035,13.035,0,0,1,22.115,7.37H35.15V33.44H22.115A13.035,13.035,0,0,1,9.08,20.4Z" transform="translate(17.142 5.817)" fill="#f24e1e"/>
            <path id="path2_fill" data-name="path2 fill" d="M12.5,7.38H25.535a13.035,13.035,0,0,1,0,26.07H12.5Z" transform="translate(39.792 5.884)" fill="#ff7262"/>
            <path id="path3_fill" data-name="path3 fill" d="M38.57,23.825A13.035,13.035,0,1,1,25.535,10.79,13.035,13.035,0,0,1,38.57,23.825Z" transform="translate(39.792 28.467)" fill="#1abcfe"/>
          </g>
          <path id="Path_91" data-name="Path 91" d="M0,0H190.568V190.568H0Z" fill="none"/>
        </g>
      </g>
    </g>
    <path id="tailwind-css_1_" data-name="tailwind-css(1)" d="M61.44,0Q36.87,0,30.72,24.43q9.22-12.21,21.5-9.16c4.68,1.16,8,4.53,11.72,8.26,6,6.08,13,13.11,28.22,13.11q24.57,0,30.72-24.43-9.21,12.22-21.5,9.16c-4.68-1.16-8-4.53-11.72-8.26C83.64,7,76.67,0,61.44,0ZM30.72,36.64Q6.15,36.64,0,61.07q9.23-12.21,21.5-9.16c4.68,1.16,8,4.53,11.72,8.27,6,6.07,13,13.11,28.22,13.11q24.57,0,30.72-24.43Q82.95,61.07,70.66,58c-4.68-1.16-8-4.53-11.72-8.26-6-6.08-13-13.12-28.22-13.12Z" transform="translate(6312.518 10574.99) rotate(-15.009)" fill="#06b6d4" fill-rule="evenodd"/>
    <g id="Group_25" data-name="Group 25" transform="translate(6202.315 10824.516)">
      <g id="Group_24" data-name="Group 24">
        <path id="Path_82" data-name="Path 82" d="M107.744,53.113c0,29.335-24.118,53.113-53.872,53.113S0,82.448,0,53.113,24.121,0,53.872,0s53.872,23.781,53.872,53.113" fill="#1a1918"/>
        <path id="Path_83" data-name="Path 83" d="M36.6,21.288,46.983,46.91,31.3,34.558ZM55.031,52.813,39.075,14.383a2.589,2.589,0,0,0-2.475-1.7,2.677,2.677,0,0,0-2.542,1.7L16.52,56.535h6l6.938-17.379,20.7,16.727a3.366,3.366,0,0,0,2.215.978A2.863,2.863,0,0,0,55.3,54a3.8,3.8,0,0,0-.273-1.183Z" transform="translate(17.936 14.684)" fill="#fff"/>
      </g>
    </g>
    <g id="logo" transform="translate(6624.148 10692.165) rotate(-14)">
      <path id="path2" d="M171.57,49.678l-80.863,144.6a4.4,4.4,0,0,1-7.653.032L.588,49.692a4.395,4.395,0,0,1,4.591-6.5L86.128,57.658a4.4,4.4,0,0,0,1.561,0l79.257-14.446a4.4,4.4,0,0,1,4.624,6.469Z" transform="translate(0 -24.167)" fill="url(#linear-gradient-3)"/>
      <path id="path4" d="M200.439.043,140.6,11.768a2.2,2.2,0,0,0-1.771,2.027l-3.681,62.17a2.2,2.2,0,0,0,2.687,2.271L154.5,74.391a2.2,2.2,0,0,1,2.647,2.581l-4.95,24.238a2.2,2.2,0,0,0,2.792,2.542l10.29-3.126a2.2,2.2,0,0,1,2.791,2.547L160.2,141.247a2.2,2.2,0,0,0,4,1.638l.882-1.364,48.762-97.312a2.2,2.2,0,0,0-2.381-3.142l-17.149,3.31a2.2,2.2,0,0,1-2.528-2.767l11.193-38.8a2.2,2.2,0,0,0-2.54-2.767Z" transform="translate(-75.75)" fill="url(#linear-gradient-4)"/>
    </g>
    <g id="Group_28" data-name="Group 28" transform="translate(6355.34 10660.377) rotate(1)">
      <path id="Path_114" data-name="Path 114" d="M110.945,43.569l-.158-.4L95.446,3.135a4.01,4.01,0,0,0-1.576-1.9,4.1,4.1,0,0,0-4.735.252,4.014,4.014,0,0,0-1.359,2.069L77.4,35.295H35.44L25.068,3.551a4.014,4.014,0,0,0-1.36-2.069,4.067,4.067,0,0,0-4.729-.252A3.991,3.991,0,0,0,17.4,3.13L2.038,43.217l-.158.4a28.532,28.532,0,0,0,9.446,32.939l.059.041.135.105,23.4,17.515,11.567,8.761,7.032,5.326a4.757,4.757,0,0,0,5.737,0l7.032-5.326L77.86,94.217,101.394,76.6l.064-.047a28.526,28.526,0,0,0,9.487-32.98Z" transform="translate(0.005)" fill="#e24329"/>
      <path id="Path_115" data-name="Path 115" d="M70.506,13.068l-.158-.4A52.009,52.009,0,0,0,49.7,21.952L16.008,47.484c11.485,8.685,21.483,16.232,21.483,16.232L61.025,46.1l.065-.047a28.526,28.526,0,0,0,9.417-32.98Z" transform="translate(40.445 30.501)" fill="#fc6d26"/>
      <path id="Path_116" data-name="Path 116" d="M9.908,38.77l11.55,8.761,7.032,5.326a4.757,4.757,0,0,0,5.737,0l7.032-5.326L52.833,38.77s-10-7.547-21.483-16.232Z" transform="translate(25.033 55.447)" fill="#fca326"/>
      <path id="Path_117" data-name="Path 117" d="M22.694,21.955A51.882,51.882,0,0,0,2.043,12.672l-.158.4a28.532,28.532,0,0,0,9.446,32.962l.059.041.135.1,23.4,17.52,21.53-16.237Z" transform="translate(0 30.522)" fill="#fc6d26"/>
    </g>
    <g id="Group_30" data-name="Group 30" transform="translate(6337.484 10848.258) rotate(-30)">
      <path id="Path_130" data-name="Path 130" d="M56.667.667a56.666,56.666,0,1,0,56.666,56.666A56.666,56.666,0,0,0,56.667.667Zm0,106.055c-8.9,0-16.123-5.948-16.123-13.283H72.79C72.79,100.773,65.571,106.722,56.667,106.722ZM83.3,89.04H30.034V79.382H83.3Zm-.191-14.629H30.186c-.176-.2-.356-.4-.526-.609-5.452-6.62-6.736-10.076-7.983-13.6-.021-.116,6.611,1.355,11.314,2.413,0,0,2.42.56,5.958,1.205A22.113,22.113,0,0,1,33.535,49.6c0-11.359,8.712-21.285,5.569-29.308,3.059.249,6.331,6.456,6.552,16.161,3.252-4.494,4.613-12.7,4.613-17.733,0-5.21,3.433-11.262,6.867-11.469-3.061,5.045.793,9.37,4.219,20.1,1.285,4.03,1.121,10.812,2.113,15.113C63.8,33.534,65.333,20.5,71,16c-2.5,5.667.37,12.758,2.333,16.167,3.167,5.5,5.087,9.667,5.087,17.548a21.92,21.92,0,0,1-5.242,14.148c3.742-.7,6.326-1.335,6.326-1.335l12.152-2.371a34.454,34.454,0,0,1-8.55,14.254Z" fill="#898989"/>
    </g>
    <g id="icon" transform="translate(8095.5 10464.854)">
      <g data-type="innerShadowGroup">
        <g transform="matrix(1, 0, 0, 1, -1942.71, -101.35)" filter="url(#Rectangle_1)">
          <g id="Rectangle_1-3" data-name="Rectangle 1" transform="translate(1843.21 2.5)" fill="#111" stroke="rgba(112,112,112,0)" stroke-width="1">
            <rect width="604" height="604" stroke="none"/>
            <rect x="0.5" y="0.5" width="603" height="603" fill="none"/>
          </g>
        </g>
        <rect id="Rectangle_1-4" data-name="Rectangle 1" width="604" height="604" transform="translate(-99.5 -98.854)" fill="#111"/>
        <g transform="matrix(1, 0, 0, 1, -1942.71, -101.35)" filter="url(#Rectangle_1-2)">
          <rect id="Rectangle_1-5" data-name="Rectangle 1" width="604" height="604" transform="translate(1843.21 2.5)" fill="#fff"/>
        </g>
        <g id="Rectangle_1-6" data-name="Rectangle 1" transform="translate(-99.5 -98.854)" fill="none" stroke="rgba(112,112,112,0)" stroke-width="1">
          <rect width="604" height="604" stroke="none"/>
          <rect x="0.5" y="0.5" width="603" height="603" fill="none"/>
        </g>
      </g>
      <g id="Group_1" data-name="Group 1" transform="translate(-0.407 -0.408)">
        <g transform="matrix(1, 0, 0, 1, -1942.31, -100.95)" filter="url(#Ellipse_1)">
          <g id="Ellipse_1-2" data-name="Ellipse 1" transform="translate(1942.31 100.95)" stroke="rgba(112,112,112,0)" stroke-width="1">
            <circle cx="203.225" cy="203.225" r="203.225" stroke="none"/>
            <circle cx="203.225" cy="203.225" r="202.725" fill="none"/>
          </g>
        </g>
        <path id="Intersection_2" data-name="Intersection 2" d="M275.364,101.77a15.924,15.924,0,1,1,31.845,0,15.923,15.923,0,0,1-31.845,0Zm-165.5-27.06c0-23.76,16.665-42.075,41.91-42.075,24.75,0,39.1,17.986,39.1,38.776,0,8.744-2.145,14.189-10.23,14.189H136.929c2.97,7.425,10.065,10.23,20.13,10.23,4.62,0,9.9-.165,16.664-3.8,1.32-.66,2.146-.329,2.97.99l7.591,10.561c.66.99.824,2.309-.825,3.794-6.765,6.93-17.16,10.066-28.71,10.066C128.183,117.446,109.868,99.626,109.868,74.71Zm26.565-8.085H166.3c-1.65-8.58-7.59-11.385-14.355-11.385C144.849,55.24,138.578,58.375,136.434,66.625Zm89.925,48.84a3.022,3.022,0,0,1-2.97-1.98l-30.2-76.065c-.661-1.815.329-2.805,2.145-2.805h22.935a3.237,3.237,0,0,1,3.136,1.98l16.335,46.86,16.169-46.86a3.465,3.465,0,0,1,3.3-1.98h22.77c1.815,0,2.805.99,2.145,2.805l-30.2,76.065a3.022,3.022,0,0,1-2.97,1.98Zm-223.906,0a2.473,2.473,0,0,1-2.475-2.641V2.605A2.473,2.473,0,0,1,2.453-.035H40.4c37.95,0,58.9,25.575,58.9,57.75s-20.955,57.75-58.9,57.75ZM28.688,90.055h11.22c19.635,0,30.36-11.055,30.36-32.34s-10.724-32.34-30.36-32.34H28.688Z" transform="translate(60.974 142.752)" fill="#fff" stroke="rgba(112,112,112,0)" stroke-width="1"/>
      </g>
    </g>
  </g>
</svg>
